<?xml version="1.0" standalone="no"?>
<!DOCTYPE svg PUBLIC "-//W3C//DTD SVG 20010904//EN"
 "http://www.w3.org/TR/2001/REC-SVG-20010904/DTD/svg10.dtd">
<svg version="1.0" xmlns="http://www.w3.org/2000/svg"
 width="1600.000000pt" height="1200.000000pt" viewBox="0 0 1600.000000 1200.000000"
 preserveAspectRatio="xMidYMid meet">

<g transform="translate(0.000000,1200.000000) scale(0.100000,-0.100000)"
fill="#000000" stroke="none">
<path d="M664 11368 c3 -348 5 -690 6 -760 1 -70 -1 -131 -4 -136 -2 -4 -1
-14 4 -21 5 -9 -3 -30 -21 -59 -43 -68 -39 -131 12 -188 14 -15 19 -34 18 -65
-1 -24 1 -314 5 -644 4 -330 7 -719 7 -864 -1 -145 2 -261 6 -258 3 4 5 409 4
900 l-2 893 26 12 c39 18 50 57 29 112 -24 62 -22 134 5 195 26 58 99 158 110
151 12 -8 39 -113 46 -186 4 -35 15 -76 24 -89 10 -16 16 -48 17 -94 l0 -69
-68 -34 c-91 -46 -105 -68 -88 -141 8 -36 10 -82 5 -130 -6 -61 -10 -75 -28
-84 -76 -39 -87 -98 -36 -188 41 -71 112 -141 143 -141 33 0 46 20 52 81 3 30
17 101 32 159 25 102 28 107 82 160 31 30 76 66 99 79 l44 24 -6 -79 c-3 -43
-9 -100 -13 -126 l-7 -47 92 -95 c50 -52 91 -102 91 -110 0 -9 -7 -28 -16 -41
-35 -53 4 -78 141 -92 79 -8 164 -6 198 3 25 8 22 56 -5 81 -13 11 -37 28 -55
37 -41 20 -76 66 -102 134 -18 45 -21 74 -21 200 0 204 2 209 112 314 l92 86
88 -83 c89 -85 141 -116 270 -161 121 -43 222 -54 481 -54 l240 0 -7 -32 c-3
-18 -20 -47 -37 -64 -22 -23 -38 -58 -60 -135 -17 -57 -28 -113 -24 -126 8
-31 -17 -84 -65 -141 -47 -57 -51 -88 -14 -123 25 -23 31 -24 147 -22 67 2
135 5 150 9 27 6 28 8 24 56 -5 47 -17 80 -17 45 0 -21 -9 -21 -39 -1 -19 14
-22 23 -18 55 3 21 15 52 28 70 20 29 23 30 29 13 4 -10 5 -38 4 -61 -2 -24 0
-43 5 -43 5 0 9 34 9 76 0 75 1 78 49 148 35 52 71 89 134 136 48 36 103 80
123 98 42 37 39 36 74 18 66 -34 172 -193 172 -256 0 -18 11 -45 25 -64 14
-18 30 -48 36 -67 7 -19 30 -53 51 -76 l40 -41 -17 -45 c-9 -25 -15 -51 -13
-57 7 -23 84 -42 193 -47 101 -5 113 -3 148 17 20 12 37 26 37 30 0 24 -19 46
-86 96 -40 30 -82 69 -93 87 -11 18 -27 70 -35 117 -9 47 -26 110 -38 140 -17
44 -20 75 -19 157 2 136 6 146 71 161 74 17 82 16 110 -19 l26 -31 58 21 c77
27 97 17 153 -69 46 -71 164 -188 228 -225 22 -14 71 -31 109 -40 38 -9 86
-25 107 -36 21 -10 58 -19 83 -19 25 0 67 -6 92 -12 l46 -13 53 56 c45 49 54
65 64 120 7 35 23 84 35 109 29 56 71 190 79 251 4 31 2 52 -7 64 -11 16 -16
14 -50 -28 -43 -53 -93 -75 -127 -57 -19 11 -21 17 -15 73 3 34 8 79 12 99 10
62 -6 61 -140 -11 -35 -18 -43 -19 -60 -7 -35 22 -47 56 -42 116 9 105 27 145
83 190 45 36 53 47 59 87 12 84 -29 109 -69 41 -19 -33 -43 -54 -102 -88 l-77
-44 -46 24 c-50 27 -88 73 -116 141 -34 85 -51 114 -68 117 -14 3 -18 -3 -18
-27 0 -16 -4 -32 -9 -35 -10 -6 -124 75 -427 304 -105 80 -225 163 -265 185
-72 38 -78 40 -184 43 -92 3 -135 -1 -265 -27 -85 -17 -158 -31 -162 -31 -4 0
-8 153 -8 341 0 187 -2 344 -5 350 -21 33 -25 -19 -25 -340 0 -193 -4 -352 -9
-355 -15 -10 -321 -36 -417 -36 -79 0 -127 8 -321 56 -216 53 -233 56 -323 51
-130 -7 -352 -42 -392 -63 -18 -9 -56 -33 -84 -54 -28 -21 -85 -54 -127 -74
-58 -28 -89 -51 -135 -101 -81 -89 -155 -197 -186 -275 -15 -35 -51 -107 -80
-160 -30 -52 -59 -104 -65 -115 -6 -11 -11 -15 -12 -10 -1 6 0 342 1 748 l2
737 -21 0 -21 0 4 -632z"/>
<path d="M5035 11753 c2 -270 2 -269 11 -261 12 13 8 508 -4 508 -5 0 -8 -111
-7 -247z"/>
<path d="M7183 11663 c0 -186 -1 -349 -1 -363 1 -14 1 -124 2 -245 l1 -220
-55 -5 c-58 -6 -107 -27 -131 -56 -21 -25 -100 -74 -121 -74 -34 0 -75 -52
-98 -125 -46 -145 -58 -156 -190 -194 -160 -47 -407 -139 -513 -192 -87 -44
-220 -142 -297 -219 -70 -70 -124 -160 -135 -225 -3 -22 -35 -98 -71 -170 -51
-101 -69 -149 -81 -215 -8 -47 -23 -110 -33 -140 -22 -67 -32 -141 -21 -159 7
-11 13 -10 35 4 41 27 48 48 53 179 6 126 14 155 57 195 l25 24 5 -27 c13 -60
16 -77 30 -197 16 -128 43 -268 71 -368 40 -144 44 -367 11 -566 -19 -110 -11
-130 58 -140 53 -8 242 -3 252 7 3 4 -3 33 -14 65 -11 32 -23 78 -26 103 -9
64 11 476 24 499 6 13 25 22 55 26 24 4 50 13 56 21 26 32 60 12 94 -55 24
-47 15 -125 -24 -222 -31 -77 -81 -265 -81 -305 0 -51 70 -73 228 -74 l102 0
-7 28 c-4 15 -7 74 -7 132 -1 210 73 370 235 511 89 76 120 99 135 99 19 0 49
-63 80 -167 21 -72 25 -100 20 -156 -9 -104 -52 -291 -80 -354 -15 -30 -26
-69 -26 -87 0 -59 6 -61 154 -61 158 0 167 4 142 64 -15 39 -15 47 5 144 16
77 22 156 26 320 3 119 9 217 13 217 3 0 14 -44 23 -97 16 -93 20 -204 19
-523 -1 -69 2 -128 6 -131 11 -9 243 8 254 19 5 5 5 151 -1 363 -8 303 -13
371 -33 469 -42 212 -27 562 30 718 17 46 18 47 77 59 33 6 102 16 153 20 l93
9 64 -43 c36 -24 67 -43 70 -43 25 0 -29 215 -72 290 -20 33 -27 62 -30 115
-2 38 0 76 6 84 7 10 34 14 98 15 81 1 94 4 139 31 66 41 135 130 195 250 120
242 117 456 -8 596 -79 87 -135 115 -261 129 -59 6 -83 14 -125 42 -75 51 -82
52 -121 17 -46 -40 -61 -87 -46 -136 25 -77 60 -96 210 -113 126 -15 129 -16
150 -63 37 -81 20 -169 -45 -234 -38 -39 -47 -43 -91 -43 -26 0 -87 9 -134 19
-154 35 -387 76 -492 87 l-58 5 0 585 c0 460 -3 584 -12 584 -10 0 -13 -75
-15 -337z"/>
<path d="M9330 11968 c0 -25 3 -29 10 -18 13 20 13 50 0 50 -5 0 -10 -15 -10
-32z"/>
<path d="M11449 11483 c-1 -285 -2 -561 -3 -613 l-1 -95 -49 -3 c-27 -2 -61 2
-75 7 -14 6 -55 13 -90 15 -35 3 -68 9 -74 15 -5 5 -15 7 -22 5 -7 -3 -16 -1
-19 5 -4 6 -13 8 -20 5 -8 -3 -30 2 -50 10 -24 10 -36 11 -36 4 0 -6 -9 -3
-20 7 -11 10 -23 15 -27 12 -3 -4 -15 1 -25 10 -16 14 -21 15 -28 4 -6 -10
-10 -8 -15 8 -4 14 -12 20 -21 17 -8 -3 -14 -1 -14 5 0 6 -9 8 -20 4 -15 -5
-20 -2 -20 10 0 11 -5 15 -15 11 -9 -3 -15 0 -15 10 0 10 -6 14 -15 11 -8 -4
-17 -2 -21 4 -4 6 -12 5 -22 -3 -13 -11 -15 -10 -9 5 6 15 3 17 -13 12 -12 -4
-20 -2 -20 5 0 6 -10 8 -27 4 -23 -6 -25 -4 -19 11 7 18 6 18 -14 0 -12 -11
-20 -13 -20 -6 0 7 -5 9 -12 5 -19 -12 -57 -14 -64 -3 -3 5 -14 7 -24 4 -13
-4 -23 1 -32 14 -8 14 -19 19 -34 15 -12 -3 -25 -1 -28 5 -10 15 -27 14 -23
-1 1 -9 -19 -13 -73 -14 -46 -1 -76 -6 -78 -13 -2 -6 -8 -9 -13 -6 -16 11 -79
-7 -79 -21 0 -10 -7 -13 -26 -8 -14 4 -29 2 -33 -3 -3 -5 -27 -20 -54 -32 -51
-25 -102 -28 -222 -16 -38 4 -84 8 -102 10 -17 2 -37 6 -44 11 -24 15 -337 5
-382 -12 -66 -25 -147 -66 -147 -74 0 -5 -15 -13 -32 -19 -23 -8 -29 -14 -20
-20 9 -5 1 -15 -28 -35 -22 -15 -39 -33 -38 -40 2 -8 -22 -49 -53 -92 -64 -91
-92 -141 -84 -153 2 -5 -2 -26 -11 -47 -9 -21 -18 -57 -21 -78 -2 -22 -9 -48
-14 -58 -7 -12 -6 -18 1 -18 7 0 6 -11 -2 -32 -17 -42 -17 -398 -1 -483 6 -33
22 -80 36 -105 14 -25 29 -62 32 -82 4 -21 11 -38 15 -38 4 0 14 -21 21 -47
15 -51 16 -175 4 -378 -6 -109 -4 -128 17 -199 30 -105 43 -112 209 -126 78
-7 133 -17 147 -26 13 -9 26 -13 30 -10 3 3 0 6 -6 6 -6 0 -9 7 -6 15 8 20 31
19 43 -2 9 -16 10 -16 11 4 0 31 18 38 41 17 18 -17 19 -16 19 19 0 29 4 37
18 37 10 0 23 -5 30 -12 19 -19 15 5 -12 65 -17 40 -36 63 -69 86 -25 17 -48
39 -51 49 -4 10 5 46 19 80 14 34 25 66 25 72 0 6 10 34 22 62 20 48 22 49 31
27 5 -13 12 -84 15 -157 l5 -132 39 -45 c57 -65 93 -78 213 -79 55 -1 108 -5
119 -10 16 -8 17 -6 11 14 -7 21 -5 23 24 17 29 -6 32 -5 26 13 -6 20 9 28 20
10 13 -21 24 -9 15 16 -7 16 -7 23 0 19 6 -3 10 -2 10 4 0 19 -67 74 -110 90
-68 25 -70 37 -23 129 24 46 50 118 62 173 12 52 27 111 32 132 l10 37 129 0
128 0 11 -50 c6 -28 11 -68 11 -90 0 -21 4 -41 9 -45 6 -3 13 -37 17 -75 4
-44 11 -70 19 -70 11 0 25 -71 41 -215 10 -88 26 -112 97 -146 60 -29 65 -30
168 -24 104 6 106 6 138 -21 37 -31 47 -27 33 15 -13 38 2 41 42 10 33 -26 40
-21 26 15 l-10 28 35 -22 c41 -25 45 -14 14 36 -11 19 -16 34 -10 34 5 0 13
-4 16 -10 3 -5 10 -10 16 -10 22 0 5 29 -53 87 -49 49 -75 67 -125 85 l-64 22
7 50 c3 28 10 57 15 66 4 8 13 83 20 165 6 83 15 166 18 185 7 35 8 34 40 -50
19 -47 40 -128 48 -180 17 -114 50 -266 63 -290 21 -40 69 -68 127 -76 32 -3
71 -13 88 -22 20 -10 30 -11 33 -3 2 6 22 11 44 11 22 0 58 5 79 11 32 10 42
9 63 -5 14 -9 28 -16 31 -16 11 0 4 24 -12 42 -18 21 -4 24 29 7 28 -15 32 -5
11 28 -14 22 -14 25 -2 16 24 -19 30 -4 13 29 -10 19 -11 27 -4 23 8 -5 11 -3
8 6 -5 17 -75 53 -144 73 -73 22 -83 38 -73 111 4 33 8 88 8 123 1 38 5 62 12
62 7 0 9 10 5 28 -11 52 -30 247 -30 324 -1 93 9 107 99 137 56 18 61 19 79 3
14 -13 20 -14 23 -4 6 17 38 15 53 -3 10 -12 15 -11 33 6 12 10 26 18 32 16 7
-3 10 -340 11 -1078 1 -591 -1 -1067 -4 -1059 -8 22 -35 47 -58 54 -17 5 -23
17 -28 54 -3 26 -13 57 -21 69 -8 12 -12 28 -9 37 4 10 -6 25 -27 43 -17 15
-43 52 -56 83 -31 69 -47 87 -102 112 -25 11 -68 38 -96 59 -28 21 -66 42 -84
45 -21 5 -30 11 -27 20 7 17 1 17 -49 -1 -55 -20 -106 -20 -99 0 11 28 -49 17
-106 -20 -30 -19 -67 -35 -82 -35 -38 0 -75 -19 -94 -47 -15 -23 -14 -26 7
-49 l22 -24 -21 0 c-12 0 -33 12 -47 27 -23 25 -25 26 -26 8 -2 -35 2 -50 22
-71 37 -40 -5 -112 -103 -177 -29 -19 -64 -46 -76 -60 -20 -21 -22 -28 -12
-47 9 -16 9 -25 1 -33 -21 -21 -13 -93 14 -125 14 -17 25 -41 25 -55 0 -48 30
-70 103 -75 l66 -4 3 -71 c3 -71 3 -71 36 -79 36 -10 38 -15 17 -45 -11 -16
-12 -22 -3 -25 8 -3 1 -21 -20 -53 -33 -51 -44 -87 -19 -66 18 14 27 4 27 -27
0 -14 7 -33 16 -43 8 -9 21 -40 29 -69 14 -54 39 -90 62 -90 7 0 13 9 13 19 0
31 19 35 32 6 10 -22 17 -26 40 -21 15 3 28 4 28 2 0 -2 -5 -17 -11 -34 -11
-31 2 -100 19 -103 46 -8 72 -5 72 7 0 8 5 14 10 14 6 0 10 -7 10 -15 0 -8 6
-15 14 -15 19 0 29 -31 20 -64 -4 -19 -2 -26 9 -26 8 0 18 -11 21 -25 4 -14
11 -25 16 -25 16 0 30 -72 40 -202 20 -256 15 -278 -65 -278 -47 0 -86 -25
-126 -82 -27 -37 -16 -69 32 -94 28 -14 45 -15 148 -4 163 17 164 18 187 229
20 190 61 337 105 376 18 17 18 17 2 -23 -13 -35 -14 -46 -3 -72 17 -40 100
-114 159 -141 l46 -22 -3 -741 c-1 -423 -6 -744 -12 -750 -4 -4 -5 -18 -1 -30
9 -24 9 -541 0 -550 -3 -3 -39 -9 -80 -12 -91 -8 -101 -14 -86 -55 10 -25 9
-35 -6 -60 -22 -39 -21 -51 4 -101 l21 -41 -22 -29 c-19 -26 -20 -34 -10 -53
16 -29 74 -61 128 -70 42 -7 42 -7 42 -48 0 -23 2 -557 4 -1187 3 -630 5
-1282 6 -1450 0 -168 1 -314 1 -325 7 -264 6 -468 -3 -502 -7 -29 -7 -47 -1
-55 6 -8 11 -87 11 -187 1 -159 4 -192 16 -180 3 2 7 205 10 449 2 245 8 460
11 477 5 20 3 38 -4 47 -12 15 -14 201 -2 271 4 22 4 59 1 82 -4 26 -2 44 4
47 7 3 6 8 -3 15 -13 8 -13 32 -4 163 7 86 8 177 4 208 -4 30 -6 98 -3 150 2
52 3 165 1 250 -4 163 -4 368 -2 410 1 14 0 254 -2 535 -3 364 -1 513 7 522 8
10 8 17 0 25 -8 8 -12 58 -12 145 l0 133 113 -6 c64 -4 150 -2 201 5 83 10 91
13 121 46 43 47 86 48 141 4 22 -18 63 -43 92 -56 l52 -24 0 -48 c0 -85 58
-131 166 -131 38 0 71 7 100 21 l43 22 50 -22 c73 -31 145 -28 214 8 30 16 70
34 89 40 20 7 61 32 93 56 66 52 71 51 106 -28 23 -51 23 -60 24 -352 0 -217
-4 -317 -14 -360 -18 -82 -59 -200 -87 -257 l-24 -48 146 0 146 0 -6 23 c-17
60 -16 131 4 357 18 200 22 283 17 452 l-6 207 182 175 c100 95 198 187 217
202 l35 29 -17 -26 c-28 -44 -32 -93 -12 -149 l18 -50 -26 -27 c-36 -40 -40
-58 -15 -81 27 -26 93 -41 174 -42 44 0 66 -5 75 -15 35 -43 55 -55 105 -65
69 -15 164 -9 275 15 l88 19 55 -27 c85 -41 142 -33 226 34 21 17 56 35 76 41
34 9 39 8 61 -17 12 -15 26 -40 29 -56 8 -41 24 -50 102 -59 50 -5 74 -13 90
-29 37 -37 153 -24 164 20 3 10 20 27 38 36 54 29 99 78 99 107 0 74 -72 129
-195 151 -42 7 -79 15 -82 18 -8 8 12 62 23 61 5 0 35 -13 67 -28 51 -24 70
-28 145 -28 133 1 212 36 212 93 0 53 -110 109 -217 109 -23 0 -44 4 -48 9
-11 19 36 49 87 55 37 5 58 15 79 36 36 35 37 63 4 84 -14 9 -35 38 -47 64
-31 65 -90 96 -167 88 -54 -5 -55 -4 -98 38 -35 35 -43 50 -43 79 0 68 -87
137 -193 153 -44 6 -50 10 -72 53 -14 25 -36 60 -50 77 l-25 31 50 31 c47 29
90 82 90 109 0 7 -22 38 -50 68 -30 33 -50 65 -50 79 0 34 -36 74 -78 86 -78
21 -218 4 -253 -31 -25 -25 -75 -35 -94 -19 -9 7 -15 29 -15 54 0 46 -12 66
-82 144 -26 30 -48 61 -48 71 0 27 -53 71 -106 87 -27 9 -95 18 -152 21 l-103
6 28 29 c26 27 27 30 13 56 -8 15 -38 38 -65 52 -41 21 -65 25 -136 26 -47 0
-91 4 -99 9 -8 5 -11 4 -6 -3 3 -6 2 -13 -4 -17 -5 -3 -27 12 -48 34 -35 36
-44 41 -85 41 -55 0 -114 -26 -123 -54 -6 -20 15 -45 61 -72 22 -12 12 -34
-14 -34 -23 0 -67 -34 -83 -63 -6 -12 -14 -38 -17 -57 -6 -33 -8 -34 -71 -46
-36 -6 -67 -10 -69 -9 -1 2 4 14 13 27 19 27 21 68 4 89 -7 8 -30 28 -51 43
-21 16 -35 32 -30 36 4 5 37 15 73 24 68 17 108 45 95 66 -4 7 -26 20 -49 31
-36 15 -62 17 -206 13 -91 -2 -174 -4 -185 -4 -11 0 -39 2 -63 6 -49 7 -72 -6
-72 -41 0 -29 44 -65 79 -65 34 0 55 -14 48 -33 -3 -9 -26 -16 -65 -20 -34 -3
-65 -8 -71 -12 -6 -3 -11 -26 -11 -51 0 -40 -2 -44 -24 -44 -13 0 -47 -17 -76
-39 -31 -23 -68 -41 -93 -45 -23 -4 -71 -26 -107 -48 -36 -23 -75 -48 -88 -55
-13 -8 -26 -22 -29 -31 -9 -23 -23 -32 -56 -32 -69 0 -114 -54 -84 -102 8 -12
17 -44 21 -71 3 -26 13 -58 22 -72 15 -23 15 -24 -18 -38 -35 -15 -88 -69 -88
-91 0 -6 -16 -18 -36 -25 -46 -17 -64 -53 -40 -80 26 -29 104 -45 153 -32 41
11 133 5 133 -9 0 -15 -76 -66 -165 -110 -68 -34 -96 -54 -114 -83 -24 -36
-26 -37 -86 -37 -126 0 -205 -27 -231 -79 -13 -25 -74 -91 -85 -91 -4 0 -4
1220 1 1320 1 8 0 139 -1 291 -1 152 2 283 6 289 5 9 4 11 -3 6 -7 -4 -12 -3
-12 2 0 6 30 16 66 23 60 12 69 17 90 51 30 47 30 59 -1 88 -18 17 -38 24 -70
25 -25 1 -47 4 -48 6 -1 2 -10 13 -19 24 -15 19 -15 22 0 55 29 60 86 107 140
115 26 3 105 19 176 35 71 17 132 28 136 25 4 -2 10 -25 12 -50 10 -85 62
-172 160 -265 49 -47 110 -109 135 -138 l45 -53 -16 -43 c-23 -61 -55 -87
-113 -93 -72 -7 -100 -21 -118 -59 -16 -35 -16 -35 15 -64 30 -28 37 -30 114
-29 121 0 140 10 205 105 31 45 73 101 93 125 64 77 61 108 -20 206 -99 119
-105 160 -36 250 l47 61 71 -55 c39 -31 113 -80 165 -110 51 -31 125 -85 163
-121 72 -68 178 -202 206 -261 l17 -33 -38 -32 c-21 -17 -44 -44 -52 -59 -14
-27 -13 -30 11 -54 23 -23 29 -24 87 -18 134 16 171 50 136 129 -16 37 -18 57
-13 114 11 115 4 131 -100 241 -81 86 -98 109 -130 187 -21 49 -48 125 -62
169 -14 44 -36 114 -50 155 -43 129 -52 115 78 115 211 1 317 42 378 147 81
142 0 324 -184 416 -139 69 -288 79 -406 26 -59 -26 -130 -90 -130 -118 0 -7
-9 -25 -20 -39 l-20 -25 50 -11 c28 -6 80 -11 117 -11 58 0 77 6 183 55 128
60 169 71 226 61 43 -9 124 -80 148 -131 41 -85 5 -191 -82 -242 -43 -26 -55
-28 -152 -28 -99 0 -108 2 -168 33 -34 18 -92 58 -129 89 -95 81 -149 115
-238 152 -192 80 -336 91 -592 45 -199 -36 -233 -30 -322 56 -34 32 -61 63
-61 69 0 5 -15 21 -32 35 -41 32 -39 -2 -36 531 1 176 2 336 1 355 -6 154 9
1276 16 1283 7 7 16 6 26 -3 12 -10 15 -10 15 3 0 9 4 18 8 21 5 3 64 -6 133
-20 68 -14 135 -22 149 -19 38 9 160 134 160 163 0 14 -14 40 -30 59 -17 19
-46 65 -65 103 -29 57 -35 81 -35 130 0 75 -17 110 -109 225 -57 70 -71 95
-77 133 -3 26 -12 62 -20 80 -11 26 -18 32 -44 32 -32 0 -80 -40 -80 -66 0 -8
-9 -14 -21 -14 l-20 0 4 620 c4 597 3 620 -15 620 -17 0 -18 -22 -19 -517z
m1249 -5940 c5 -69 -25 -101 -68 -73 -13 8 -13 13 -2 31 8 12 11 32 7 49 -5
22 -2 29 12 33 38 10 48 3 51 -40z m187 27 c3 -5 -4 -23 -16 -39 -19 -26 -21
-35 -11 -71 9 -35 8 -42 -8 -50 -45 -24 -95 -5 -116 45 -21 51 -18 91 8 109
25 18 133 22 143 6z m774 -29 l25 -19 -32 -69 c-18 -38 -32 -74 -32 -80 0 -6
-18 -22 -40 -37 -22 -14 -40 -33 -40 -41 0 -17 56 -55 82 -55 36 0 50 -30 43
-89 -4 -31 -12 -62 -17 -68 -15 -18 -38 -16 -45 5 -4 9 -24 44 -45 77 -21 33
-38 70 -38 83 0 12 -4 22 -10 22 -19 0 -53 84 -53 130 1 105 14 145 43 137 11
-3 21 1 24 9 8 22 105 18 135 -5z m-223 -196 c9 -25 14 -48 10 -52 -3 -4 -38
8 -76 27 -38 19 -67 36 -64 39 9 10 98 39 106 35 3 -3 14 -25 24 -49z m391
-191 c9 -25 -14 -38 -70 -39 l-52 0 -3 58 -3 58 61 -31 c33 -17 64 -38 67 -46z
m-1113 -613 c-1 -34 -5 -66 -10 -70 -5 -5 -44 -12 -86 -16 l-78 -7 -50 52
c-27 28 -50 56 -50 62 0 7 16 8 45 4 25 -3 64 -9 88 -12 37 -5 47 -2 81 25 22
17 44 30 50 28 7 -2 11 -30 10 -66z m1272 56 c11 -6 36 -22 54 -34 l34 -22
-38 -16 c-21 -9 -60 -19 -86 -22 l-47 -5 -6 48 c-3 27 -3 52 0 56 7 12 66 9
89 -5z m-1537 -116 c17 -24 31 -47 31 -51 0 -13 -85 -64 -104 -62 -25 1 -63
38 -70 68 -4 13 -13 24 -22 24 -9 0 -14 6 -12 13 5 14 130 67 139 58 4 -3 21
-26 38 -50z m-450 29 c41 -19 43 -21 27 -38 -21 -25 -20 -58 3 -81 33 -33 116
-38 252 -15 21 3 46 1 59 -6 20 -11 22 -17 17 -62 -4 -28 -8 -52 -9 -54 -2 -1
-48 -6 -103 -9 l-100 -7 -48 41 c-26 22 -58 43 -70 47 -81 24 -100 46 -112
128 -12 80 5 92 84 56z m2185 11 c3 -5 40 -21 81 -36 42 -16 74 -33 72 -39 -2
-7 -71 -14 -194 -20 -188 -8 -314 -2 -297 14 5 5 65 25 134 45 69 20 127 39
129 41 8 8 70 4 75 -5z m-2304 -47 c6 -14 13 -44 16 -66 l7 -41 -52 5 c-28 3
-54 8 -58 12 -4 4 1 20 10 35 9 16 17 38 17 48 0 41 45 47 60 7z m-370 -104
c0 -5 -11 -9 -25 -8 -14 1 -25 3 -25 4 0 1 3 9 6 18 5 12 10 13 25 5 10 -5 19
-14 19 -19z m1839 -80 c27 -10 73 -22 101 -26 28 -4 54 -12 56 -19 9 -22 -22
-78 -72 -134 -51 -57 -169 -151 -189 -151 -9 0 -14 43 -19 153 -4 83 -10 162
-13 175 -5 20 -2 22 41 22 25 0 68 -9 95 -20z m271 -39 c0 -5 -17 -24 -37 -42
-36 -31 -38 -32 -41 -11 -5 35 15 62 48 62 17 0 30 -4 30 -9z m-510 -216 c0
-106 -4 -118 -38 -97 -14 10 -32 65 -32 101 0 13 -7 32 -16 42 -15 17 -14 19
17 38 65 40 69 34 69 -84z m-457 54 c32 -8 37 -14 37 -39 0 -48 -17 -80 -42
-80 -13 0 -50 -12 -83 -25 -33 -14 -64 -25 -69 -25 -5 0 12 22 36 48 33 35 48
60 53 90 7 45 11 47 68 31z"/>
<path d="M13498 5485 c-2 -19 -1 -35 2 -35 4 0 4 -20 0 -45 -4 -26 -3 -48 3
-52 5 -3 3 -9 -4 -14 -9 -5 -10 -9 -2 -9 6 0 9 -8 6 -19 -3 -10 0 -21 5 -25 6
-3 10 41 10 114 0 66 -3 120 -8 120 -4 0 -10 -16 -12 -35z"/>
<path d="M13502 11415 c2 -321 2 -582 0 -580 -3 3 -10 14 -16 27 -19 38 -36
34 -36 -10 0 -49 -23 -74 -39 -43 -9 16 -7 27 9 53 25 41 25 64 3 106 -24 44
-105 124 -115 114 -4 -4 -14 -41 -22 -82 -7 -41 -18 -76 -23 -77 -7 -3 -6 -17
0 -41 9 -32 6 -46 -22 -109 -18 -42 -31 -88 -31 -113 0 -71 -19 -125 -57 -161
-27 -26 -34 -30 -30 -14 3 11 13 62 22 112 13 69 26 107 52 150 l35 58 -7 105
-6 105 36 50 36 50 -43 39 c-24 21 -63 52 -87 69 -37 25 -47 28 -63 18 -17
-11 -18 -10 -9 6 8 16 3 22 -35 42 -42 23 -45 23 -70 7 -25 -17 -25 -17 -15 3
15 27 14 36 -3 22 -11 -10 -16 -8 -21 9 -6 19 -88 67 -143 85 -20 6 -23 4 -20
-12 2 -10 10 -17 17 -15 11 2 12 -7 7 -40 -4 -24 -11 -47 -15 -51 -8 -8 -71
68 -71 86 0 5 9 7 19 4 18 -4 31 9 31 33 0 8 -53 30 -71 30 -5 0 -9 -9 -9 -20
0 -16 -5 -19 -28 -14 -25 5 -34 -1 -70 -42 l-40 -47 -64 41 c-36 23 -74 42
-86 42 -20 0 -22 -3 -16 -42 10 -64 34 -109 71 -130 18 -11 33 -26 33 -33 0
-8 -22 -40 -50 -71 -27 -31 -51 -62 -51 -68 -1 -6 -2 -47 -3 -91 -1 -65 -6
-89 -27 -130 -15 -27 -45 -98 -69 -158 -23 -59 -46 -110 -51 -113 -27 -16 20
-178 64 -222 19 -19 38 -25 89 -29 86 -7 124 12 134 65 9 50 25 66 124 124
135 79 148 96 173 218 9 42 27 109 41 150 13 41 30 124 37 183 12 106 13 109
56 162 38 46 48 53 64 44 24 -12 24 -12 -8 -61 -26 -39 -27 -46 -26 -157 2
-102 -2 -129 -29 -228 -29 -106 -34 -115 -91 -178 -35 -38 -66 -64 -75 -63
-40 7 10 -100 118 -252 25 -36 59 -87 75 -114 27 -45 28 -52 17 -92 -7 -25
-12 -89 -12 -144 0 -116 15 -162 86 -269 l46 -69 -11 -74 c-6 -40 -13 -104
-16 -143 -12 -135 -27 -216 -56 -303 -16 -48 -36 -123 -44 -167 -17 -95 -36
-152 -100 -299 -40 -89 -58 -118 -102 -159 -29 -28 -64 -56 -78 -62 -23 -9
-105 -107 -105 -125 0 -30 256 -44 279 -16 6 8 14 38 18 67 7 69 34 113 87
144 47 27 49 32 112 265 20 74 44 145 54 158 10 12 26 55 35 94 18 82 29 103
84 177 22 29 54 88 71 130 65 161 59 151 102 151 l38 0 0 -338 c0 -381 -6
-447 -56 -628 l-35 -129 -94 -96 c-52 -53 -95 -104 -95 -113 0 -47 202 -65
249 -22 12 11 23 17 25 15 16 -19 22 -47 16 -68 -8 -32 0 -211 10 -211 4 0 8
59 8 130 1 72 -2 130 -7 130 -12 0 -11 62 1 78 8 9 8 16 0 24 -14 14 -16 32
-3 24 5 -3 9 6 9 20 0 14 16 49 36 78 34 50 36 57 36 135 0 100 21 204 64 325
27 75 34 111 39 206 5 89 14 143 41 240 20 69 41 142 47 163 7 27 15 37 24 33
8 -3 54 -10 102 -17 131 -17 326 0 494 44 l56 14 63 -161 c115 -289 116 -315
29 -484 -104 -199 -196 -313 -287 -355 -31 -14 -141 -181 -129 -194 3 -3 55
-2 116 2 142 10 170 23 186 88 13 50 36 83 66 92 10 3 39 45 65 93 26 48 92
164 147 257 167 286 161 265 122 401 -23 81 -47 242 -59 409 l-5 70 48 -130
c26 -71 67 -174 89 -227 37 -84 42 -107 42 -170 0 -58 7 -90 31 -152 16 -43
35 -115 41 -161 10 -73 9 -92 -7 -152 -11 -39 -18 -93 -17 -128 2 -55 -1 -64
-33 -109 -19 -27 -35 -54 -35 -60 0 -6 -14 -31 -30 -56 -16 -25 -30 -48 -30
-51 0 -14 56 -29 113 -29 117 0 146 40 133 180 -6 57 -4 75 12 107 17 35 18
51 10 203 -5 104 -4 192 2 238 14 99 12 165 -5 237 -19 77 -19 160 0 258 8 43
15 118 15 167 0 65 5 99 19 131 28 64 61 258 61 361 0 70 -4 98 -21 131 -36
71 -100 147 -167 198 -71 53 -220 133 -269 144 -32 6 -33 5 -33 -25 0 -40 -19
-75 -78 -147 -74 -89 -83 -107 -98 -193 -14 -81 -9 -134 24 -255 l9 -30 16 32
c9 17 21 70 26 118 11 90 14 96 89 205 23 34 42 72 42 85 0 12 9 30 20 40 10
9 27 37 36 61 9 24 20 44 25 44 15 0 29 -65 20 -95 -14 -50 -102 -218 -131
-252 -19 -22 -30 -48 -35 -85 -8 -59 -24 -101 -55 -138 -16 -20 -23 -55 -36
-174 -10 -100 -22 -166 -36 -198 -23 -53 -87 -118 -118 -118 -26 0 -25 3 9 51
54 73 66 128 65 284 0 77 -10 222 -22 322 -16 133 -19 188 -12 208 18 47 109
172 164 223 48 45 51 51 32 56 -27 7 -125 -7 -261 -38 -60 -14 -132 -30 -160
-36 -27 -6 -85 -20 -128 -32 -91 -24 -122 -22 -282 23 -119 34 -233 90 -279
138 -17 17 -38 31 -48 31 -17 0 -18 28 -18 615 0 435 -3 615 -11 615 -8 0 -10
-170 -7 -585z m-1037 -105 c19 -43 17 -54 -8 -44 -16 6 -47 72 -47 101 0 15 2
15 19 -1 10 -9 26 -35 36 -56z m263 23 c37 -36 62 -90 62 -137 0 -15 3 -16 14
-7 30 25 46 -48 26 -118 -5 -18 -14 -99 -20 -180 -12 -175 -19 -221 -31 -221
-13 0 0 232 17 301 16 67 17 79 5 79 -17 0 -32 -102 -41 -274 -6 -94 -14 -174
-20 -180 -7 -7 -10 1 -10 23 0 19 -4 30 -10 26 -5 -3 -10 -17 -10 -30 0 -34
-10 -55 -26 -55 -19 0 -18 16 6 85 37 108 24 131 -69 122 -33 -3 -65 -8 -70
-12 -24 -14 3 -25 60 -25 l59 0 -1 -37 c0 -21 -4 -47 -8 -58 -7 -18 -9 -16
-15 12 -4 17 -13 37 -21 43 -21 17 -112 25 -130 10 -28 -23 -15 -30 55 -30 60
0 70 -3 70 -17 0 -10 3 -29 7 -42 6 -22 4 -23 -18 -17 -37 12 -142 27 -147 21
-14 -14 25 -35 64 -35 46 0 67 -15 34 -25 -22 -7 -26 -20 -10 -30 6 -3 10 -10
10 -16 0 -5 -9 -4 -20 3 -24 16 -41 1 -17 -16 23 -18 22 -23 -18 -87 -36 -58
-69 -81 -104 -72 -29 8 -26 18 10 33 30 13 89 81 89 103 0 6 -16 -8 -35 -30
-44 -51 -82 -67 -139 -59 -54 8 -58 17 -58 130 l0 81 84 175 c102 209 101 208
80 206 -13 -1 -18 9 -20 44 -3 42 0 48 44 90 48 46 50 41 8 -17 -25 -33 -30
-58 -14 -68 5 -3 23 20 40 52 32 60 33 57 14 -37 -4 -20 -2 -30 5 -30 14 0 31
42 31 76 0 13 5 24 10 24 6 0 10 -21 10 -47 0 -38 -7 -55 -39 -97 -49 -65 -42
-52 -106 -207 -37 -89 -48 -126 -36 -115 10 9 29 45 41 79 27 75 78 170 125
232 26 33 35 55 35 84 0 64 12 131 22 125 6 -4 8 -40 6 -82 -2 -62 0 -77 14
-86 25 -15 41 4 30 35 -5 13 -13 57 -17 97 -8 81 2 92 42 45 l23 -28 -25 69
c-24 65 -33 135 -18 149 14 14 33 6 71 -30z m-196 -22 c31 -28 32 -30 20 -69
-7 -22 -19 -45 -27 -52 -13 -11 -15 -7 -15 29 0 23 -7 58 -15 78 -8 19 -15 37
-15 39 0 12 24 0 52 -25z m385 14 c3 -9 -4 -42 -16 -74 -13 -36 -19 -69 -15
-87 3 -16 -2 -67 -10 -113 -9 -46 -16 -100 -16 -120 0 -21 -7 -46 -15 -57 -13
-18 -14 -16 -15 21 0 22 9 94 19 159 15 88 17 125 9 139 -13 25 -5 111 12 132
16 19 39 19 47 0z m223 -133 c0 -15 -71 -107 -83 -107 -7 0 -13 -15 -15 -32
-4 -45 -17 -41 -30 10 -11 42 -11 42 36 90 28 29 55 47 69 47 13 0 23 -3 23
-8z m-567 -32 c-3 -11 -10 -23 -16 -27 -7 -4 -8 0 -4 11 4 10 7 22 7 27 0 5 4
9 9 9 5 0 7 -9 4 -20z m637 -30 c0 -5 -7 -28 -16 -50 -13 -33 -15 -60 -10
-135 6 -82 5 -98 -13 -133 -11 -22 -34 -95 -51 -163 -37 -146 -61 -192 -114
-224 l-39 -24 -38 20 c-47 24 -63 45 -27 36 21 -6 33 1 70 41 24 26 53 63 65
82 27 43 123 333 123 369 0 15 -14 43 -31 64 l-32 38 44 45 c41 42 69 56 69
34z m-161 -280 c-31 -93 -85 -200 -120 -235 -36 -39 -36 -45 0 -45 24 0 35 9
63 53 47 70 62 114 87 237 11 58 22 114 24 125 3 11 5 -22 6 -73 1 -132 -30
-222 -117 -330 -56 -68 -82 -83 -124 -70 l-36 11 15 36 c8 20 27 47 43 61 17
14 43 57 61 100 36 86 89 235 89 249 0 5 6 22 12 38 12 27 13 25 16 -32 2 -42
-3 -79 -19 -125z m339 138 c15 -15 15 -55 1 -99 -17 -49 -28 -58 -44 -35 -13
17 -14 15 -8 -18 4 -26 -3 -60 -25 -124 -16 -48 -33 -104 -36 -126 -6 -48 -57
-158 -92 -199 -68 -82 -160 -111 -206 -65 l-21 21 29 11 c36 14 118 51 163 74
54 27 70 58 87 166 9 61 26 125 45 169 22 49 29 79 25 99 -4 21 2 43 25 83 33
58 38 62 57 43z m117 -219 c0 -42 -8 -49 -23 -22 -6 10 -6 27 0 45 13 37 23
27 23 -23z m-100 -75 c-8 -32 -22 -106 -30 -164 -33 -221 -69 -305 -147 -346
-40 -21 -37 -3 18 90 59 101 71 136 95 286 11 69 27 147 35 174 14 41 18 46
30 34 13 -12 12 -22 -1 -74z m151 35 c3 -6 57 -44 118 -84 61 -40 120 -82 130
-94 25 -27 65 -263 64 -371 l0 -75 -13 105 c-30 250 -88 372 -202 425 -60 28
-98 57 -114 88 -11 19 5 25 17 6z m-88 -76 c2 -17 -1 -46 -6 -64 -8 -34 -9
-34 -21 -11 -8 15 -10 39 -5 68 7 51 27 55 32 7z m1120 -45 c-3 -30 -6 -33
-40 -36 -37 -3 -38 -3 -38 32 0 35 1 36 41 36 39 0 40 -1 37 -32z m-1049 -46
c0 -31 -4 -77 -8 -102 -7 -36 -9 -24 -10 63 -1 70 3 106 9 102 6 -3 10 -32 9
-63z m922 57 c20 -10 20 -11 3 -30 -17 -18 -16 -20 6 -44 22 -23 22 -25 6 -65
-21 -54 -31 -172 -18 -237 5 -29 5 -53 1 -53 -15 0 -56 92 -68 151 -9 44 -9
62 2 90 8 18 18 68 22 109 9 96 10 99 46 79z m-856 -51 c30 -67 49 -190 43
-270 -4 -48 -19 -93 -63 -190 -32 -70 -60 -126 -63 -124 -2 3 -4 28 -4 56 1
75 -9 54 -13 -27 -1 -37 -3 -74 -4 -81 -1 -7 -25 -39 -53 -71 -29 -32 -68 -77
-86 -100 -27 -33 -40 -41 -66 -41 -38 0 -139 48 -178 84 -56 53 -99 128 -79
140 4 3 41 -22 82 -55 40 -32 81 -59 90 -59 9 0 24 10 35 21 10 12 43 37 72
55 76 49 176 155 207 221 74 158 88 246 60 403 -17 99 -16 90 -9 90 3 0 16
-24 29 -52z m74 23 c33 -33 41 -88 41 -276 -1 -176 -1 -181 -28 -232 -15 -29
-55 -106 -89 -172 -65 -125 -82 -147 -84 -109 -3 74 4 96 62 184 82 124 99
174 99 280 0 112 -19 272 -36 306 -8 15 -14 29 -14 33 0 12 32 3 49 -14z m701
-1 c0 -5 -6 -10 -14 -10 -8 0 -18 5 -21 10 -3 6 3 10 14 10 12 0 21 -4 21 -10z
m-513 -42 c19 -23 32 -80 52 -218 11 -74 32 -189 47 -255 44 -196 33 -395 -27
-492 -22 -35 -76 -79 -86 -69 -4 3 6 36 21 72 52 127 60 444 17 674 -35 189
-42 224 -56 272 -12 44 -12 47 4 38 10 -5 22 -15 28 -22z m433 3 c0 -22 -25
-45 -40 -36 -15 9 -12 31 6 49 18 19 34 13 34 -13z m-795 -113 c-2 -128 -16
-182 -73 -294 -43 -84 -161 -194 -209 -194 -63 0 -193 102 -193 151 0 25 17
23 65 -6 42 -26 95 -32 140 -15 79 30 187 197 224 350 21 83 37 130 44 130 2
0 3 -55 2 -122z m451 80 c23 -25 37 -60 113 -273 74 -207 75 -214 75 -380 -1
-165 -16 -231 -70 -303 -24 -31 -109 -80 -120 -69 -3 2 11 27 30 55 51 76 77
162 83 273 7 123 -8 208 -58 332 -28 70 -39 112 -39 150 0 34 -12 90 -34 155
-36 106 -32 119 20 60z m118 -11 c18 -20 72 -122 129 -245 116 -249 127 -297
109 -452 -21 -175 -66 -271 -146 -309 -23 -12 -45 -21 -49 -21 -4 0 7 21 23
47 90 141 113 359 59 553 -11 40 -40 112 -64 159 -25 47 -54 120 -66 161 -11
41 -29 90 -39 108 -17 28 -17 32 -3 32 8 0 30 -15 47 -33z m280 -51 c-30 -70
-45 -80 -61 -43 -13 27 14 87 49 111 39 27 43 2 12 -68z m-175 64 c10 -5 26
-29 36 -52 9 -24 35 -68 59 -98 57 -75 65 -89 124 -217 l52 -112 0 -183 c0
-181 0 -184 -29 -243 -33 -69 -63 -100 -106 -111 l-30 -7 24 23 c89 87 119
364 58 539 -37 106 -192 375 -246 428 l-45 43 43 0 c23 0 50 -4 60 -10z m849
-28 l43 -37 -15 -50 c-21 -67 -61 -134 -140 -234 -40 -52 -70 -100 -76 -125
-6 -23 -19 -63 -30 -91 -10 -27 -33 -88 -51 -135 -17 -47 -38 -93 -47 -102
-19 -23 -5 -23 20 -1 22 20 24 3 3 -37 -16 -30 -61 -60 -91 -60 -16 0 -16 1
-1 18 8 9 16 22 17 27 0 6 7 33 15 60 8 28 17 86 20 130 6 67 15 96 56 183 26
57 51 120 55 140 9 50 18 66 80 139 30 34 56 75 59 90 4 16 13 43 20 60 8 18
12 39 9 48 -10 25 8 17 54 -23z m-1213 -272 c-1 -145 -14 -185 -88 -273 -24
-29 -68 -98 -97 -155 -53 -104 -90 -147 -122 -139 -10 3 -16 1 -13 -3 7 -11
-108 -90 -130 -90 -9 0 -25 5 -36 11 -16 8 -18 14 -9 24 13 15 8 17 -82 35
-31 6 -68 20 -82 31 -29 22 -91 108 -84 115 3 2 30 -22 60 -53 56 -59 57 -60
152 -63 55 -2 104 35 160 119 25 39 51 71 56 71 5 0 8 -23 6 -51 -3 -47 -7
-54 -72 -120 -37 -38 -63 -69 -56 -69 19 0 86 36 101 54 7 9 17 13 22 10 5 -3
9 -1 9 4 0 5 18 28 40 52 22 24 40 50 40 58 0 8 15 40 34 71 103 171 137 276
144 446 l5 130 21 -45 c18 -38 21 -63 21 -170z m1380 90 c45 -90 36 -113 -84
-208 -22 -18 -50 -50 -60 -70 -11 -20 -31 -48 -45 -61 -30 -29 -189 -131 -194
-126 -3 2 1 28 8 57 15 62 26 76 182 214 118 106 158 160 158 217 0 15 2 27 5
27 2 0 16 -22 30 -50z m-1987 -37 c5 -46 -40 -92 -95 -100 -36 -5 -45 -2 -68
21 -32 32 -29 48 11 57 16 3 49 18 74 33 56 33 74 30 78 -11z m652 -332 c5
-20 10 -61 9 -91 l0 -55 -25 64 c-14 35 -28 85 -31 110 l-6 46 21 -19 c12 -10
26 -35 32 -55z m1326 42 c-2 -10 -12 -43 -20 -74 -23 -81 -66 -117 -189 -157
-53 -17 -110 -41 -127 -54 -26 -19 -32 -20 -40 -8 -5 8 -10 29 -10 47 0 29 5
34 73 67 39 19 124 71 187 115 63 44 119 80 123 80 5 1 6 -7 3 -16z m-1410
-87 c-8 -20 -22 -39 -30 -42 -33 -13 -35 3 -6 50 37 57 61 52 36 -8z m48 -78
c10 -14 16 -42 15 -73 l0 -50 -18 50 c-30 85 -33 95 -22 95 5 0 17 -10 25 -22z
m-57 -38 c12 -23 11 -25 -15 -28 -55 -5 -72 -13 -117 -52 -25 -22 -48 -40 -51
-40 -13 0 36 67 79 107 53 50 84 54 104 13z m1363 -89 c0 -16 -9 -39 -19 -52
-16 -20 -29 -24 -83 -26 -34 -1 -86 -5 -115 -8 -67 -10 -88 -2 -73 25 16 31
65 51 169 70 127 24 121 24 121 -9z m-1342 -44 c23 -24 29 -36 22 -47 -8 -13
-10 -12 -10 2 0 47 -95 51 -182 7 -34 -17 -77 -33 -96 -35 -34 -3 -34 -3 -15
19 25 30 38 38 108 63 91 33 134 31 173 -9z m942 -58 c-56 -47 -119 -73 -185
-77 -54 -3 -58 -2 -42 12 10 8 59 24 109 36 54 14 101 32 117 46 14 12 28 20
31 17 3 -2 -11 -18 -30 -34z m-1475 -8 c28 -16 58 -38 68 -49 18 -20 18 -20
-23 -11 -47 11 -96 33 -122 57 -47 41 7 43 77 3z m497 -3 c29 -29 12 -33 -57
-13 -62 18 -64 35 -4 35 27 0 46 -7 61 -22z m1333 -23 c-38 -32 -125 -60 -158
-51 -27 6 -57 31 -57 47 0 5 19 9 43 10 23 0 62 4 87 8 25 5 61 9 80 9 l35 1
-30 -24z m-1627 -13 c3 -19 -1 -22 -28 -22 -31 0 -32 5 -7 38 14 18 31 10 35
-16z m1272 -14 c-68 -59 -175 -87 -220 -58 -11 7 3 10 46 10 51 0 69 5 120 36
32 19 63 39 68 44 5 6 12 7 15 4 3 -3 -10 -19 -29 -36z m-1565 21 c11 -17 -1
-21 -15 -4 -8 9 -8 15 -2 15 6 0 14 -5 17 -11z m554 -13 c15 -8 34 -23 42 -32
13 -16 12 -17 -6 -9 -11 5 -68 11 -127 13 -77 3 -108 7 -108 16 0 7 3 16 7 19
13 13 163 7 192 -7z m1051 -36 c0 -13 -60 -50 -80 -50 -10 0 -3 11 18 30 32
30 62 39 62 20z m315 -6 c-35 -28 -83 -44 -129 -44 -81 0 -65 29 17 31 23 0
58 7 77 14 47 18 59 18 35 -1z m-1778 -11 c38 -12 53 -22 53 -35 0 -21 -1 -21
-32 -9 -13 6 -49 17 -81 26 -58 16 -69 35 -20 35 15 0 50 -8 80 -17z m-65 -44
c86 -31 115 -50 104 -67 -8 -14 -173 51 -200 78 -30 29 -5 27 96 -11z m479 12
c13 -11 22 -21 19 -23 -13 -9 -214 8 -217 19 -5 13 26 19 113 22 48 1 67 -3
85 -18z m1049 -5 c0 -25 -28 -44 -80 -55 -76 -16 -136 -14 -156 7 -17 16 -13
17 77 22 67 4 102 10 120 22 30 21 39 22 39 4z m328 -13 c-5 -25 -66 -63 -102
-63 -30 0 -76 23 -76 38 0 4 21 8 48 9 26 1 63 8 82 17 45 20 52 20 48 -1z
m-1900 -52 c20 -10 56 -24 80 -30 26 -7 42 -18 42 -27 0 -11 -6 -14 -22 -9
-41 13 -163 66 -172 76 -18 17 33 10 72 -10z m477 -5 l50 -24 -58 -1 c-71 -1
-72 -14 -1 -53 34 -19 43 -28 28 -28 -12 0 -36 11 -55 24 -19 14 -53 37 -76
53 -47 31 -51 39 -25 46 42 11 91 5 137 -17z m1102 -13 c4 -12 -9 -17 -69 -28
-59 -9 -48 -29 12 -22 28 3 50 2 50 -2 0 -12 -26 -21 -60 -21 -38 0 -133 21
-126 27 10 11 161 62 175 60 8 -1 16 -7 18 -14z m309 -28 c-3 -9 -27 -26 -53
-38 -46 -21 -47 -22 -20 -25 16 -2 42 1 58 7 16 5 29 6 29 2 0 -16 -52 -43
-84 -45 -32 -1 -46 17 -60 75 -6 26 -5 27 62 36 37 5 69 8 71 6 2 -1 1 -9 -3
-18z m-1931 -5 c3 -5 -3 -10 -14 -10 -12 0 -21 5 -21 10 0 6 6 10 14 10 8 0
18 -4 21 -10z m103 -33 c37 -21 39 -24 28 -45 l-12 -22 -25 27 c-62 69 -60 79
9 40z m318 9 c22 -17 13 -30 -27 -40 -33 -7 -46 16 -23 39 19 19 25 19 50 1z
m-390 -42 c37 -18 57 -45 52 -71 -2 -14 -10 -11 -39 15 -60 53 -79 41 -29 -18
40 -46 40 -75 1 -32 -17 17 -40 32 -52 32 -21 0 -22 -1 -4 -20 21 -24 15 -35
-14 -25 -28 9 -28 51 -1 60 16 5 18 10 10 25 -27 50 9 66 76 34z m1593 -10 c2
-2 10 1 18 7 7 6 13 7 13 2 0 -22 -49 -36 -102 -29 -82 11 -102 17 -86 27 12
8 148 2 157 -7z m-1105 -25 c36 -17 22 -30 -24 -23 -22 4 -47 3 -56 0 -28 -11
1 -31 40 -28 36 4 55 -13 37 -31 -8 -8 -30 -5 -82 13 -39 14 -72 27 -74 30 -8
13 12 28 50 38 55 14 80 14 109 1z m1426 -16 c0 -5 -13 -22 -28 -40 -26 -30
-29 -31 -62 -20 -57 20 -50 42 17 54 32 5 61 11 66 12 4 0 7 -2 7 -6z m-267
-17 c4 -10 -15 -15 -88 -20 -91 -6 -145 3 -145 24 0 17 227 13 233 -4z m297
-38 c-1 -7 -14 -28 -30 -47 -26 -31 -32 -33 -60 -25 -41 12 -40 27 3 37 20 5
43 17 54 27 21 22 33 25 33 8z m-324 -14 c18 -15 17 -15 -13 -10 -40 7 -43 -6
-5 -22 22 -9 10 -10 -63 -5 -80 5 -104 13 -105 34 0 3 10 4 23 2 12 -2 40 0
62 5 59 15 79 14 101 -4z m-1248 -11 c2 -8 -5 -13 -17 -13 -12 0 -21 6 -21 16
0 18 31 15 38 -3z m-389 -38 c8 -8 13 -16 10 -18 -8 -8 -109 26 -109 36 0 14
82 -1 99 -18z m481 1 c0 -2 3 -11 6 -19 4 -12 -3 -14 -40 -10 -58 7 -62 -12
-5 -28 34 -11 68 -43 57 -54 -2 -2 -27 3 -56 11 -28 9 -62 14 -74 12 -18 -3
-9 -11 45 -37 78 -39 88 -55 20 -35 -25 8 -57 14 -70 14 -19 0 -23 5 -23 33 0
60 12 106 29 110 21 6 111 8 111 3z m1090 -21 l55 -13 -57 -1 c-62 -1 -91 6
-82 20 7 12 18 11 84 -6z m-1654 -11 c17 -14 17 -15 1 -10 -10 3 -25 6 -33 6
-8 0 -14 5 -14 10 0 15 24 12 46 -6z m2034 -19 c0 -28 -33 -42 -76 -31 -35 9
-26 27 22 42 55 17 54 17 54 -11z m-350 -14 c0 -14 -27 -21 -81 -21 -37 0 -49
4 -49 15 0 12 14 15 65 15 36 0 65 -4 65 -9z m-1645 -20 c27 -13 33 -20 20
-20 -11 0 -36 8 -55 19 -45 25 -17 25 35 1z m-50 -22 c4 -6 5 -13 2 -16 -8 -7
-47 7 -47 18 0 13 37 11 45 -2z m1673 -16 c-2 -14 -15 -19 -57 -21 -30 -2 -59
2 -65 8 -17 17 12 30 72 30 46 0 53 -3 50 -17z m368 4 c4 -3 4 -13 0 -22 -4
-11 -13 -14 -33 -9 -37 9 -57 25 -43 34 13 8 67 6 76 -3z m-2011 -37 c3 -5 -1
-10 -9 -10 -8 0 -18 5 -21 10 -3 6 1 10 9 10 8 0 18 -4 21 -10z m2015 -39 c0
-28 -17 -35 -51 -21 -43 18 -37 40 11 40 33 0 40 -3 40 -19z m-2039 -11 c18
-15 20 -19 8 -20 -25 0 -79 21 -79 31 0 16 47 9 71 -11z m508 2 c45 -21 44
-32 -3 -32 -35 0 -80 26 -71 41 9 13 28 11 74 -9z m1101 8 c-20 -13 -80 -13
-80 0 0 6 21 10 48 10 34 0 43 -3 32 -10z m-10 -46 c0 -1 -3 -9 -6 -18 -8 -21
-114 -23 -114 -3 0 8 2 16 4 18 4 4 116 7 116 3z m-1634 -19 c20 -15 13 -18
-23 -9 -13 4 -23 10 -23 15 0 14 24 11 46 -6z m2059 1 c37 -27 -2 -58 -49 -40
-16 6 -22 35 -9 47 11 11 38 8 58 -7z m-1512 -10 c29 1 32 -3 18 -25 -8 -12
-14 -12 -40 -2 -17 7 -36 20 -43 29 -11 13 -10 14 12 6 14 -4 37 -8 53 -8z
m-540 -34 c17 -3 27 -11 27 -21 0 -30 -11 -31 -51 -4 -39 26 -54 52 -21 38 9
-4 29 -10 45 -13z m1577 -17 c0 -7 -49 -105 -53 -105 -23 2 -83 32 -85 44 -4
18 15 21 52 6 34 -13 61 -3 45 16 -6 8 -17 14 -24 14 -7 0 -18 7 -25 15 -11
13 -6 15 39 15 28 0 51 -2 51 -5z m-1590 -64 c19 -37 11 -43 -27 -20 -52 31
-57 35 -50 54 6 14 9 14 37 0 16 -8 34 -24 40 -34z m557 35 c3 -3 3 -12 -1
-21 -5 -13 -13 -15 -38 -10 -40 9 -53 19 -43 35 7 11 70 8 82 -4z m1520 -10
c14 -13 -9 -36 -35 -36 -33 0 -55 20 -47 43 5 11 14 13 41 7 20 -5 38 -11 41
-14z m-2119 -81 c27 -25 32 -35 20 -35 -17 0 -98 29 -98 35 0 2 3 10 6 19 10
25 31 19 72 -19z m558 25 c15 -6 24 -13 21 -16 -8 -8 -77 7 -77 17 0 12 23 11
56 -1z m1559 -22 c2 -2 -3 -33 -11 -68 -8 -36 -14 -82 -12 -102 3 -36 2 -38
-25 -38 -43 0 -90 28 -82 48 19 45 35 108 35 138 l0 33 46 -3 c25 -2 47 -6 49
-8z m-562 -17 c5 -5 0 -22 -10 -38 -16 -27 -20 -29 -33 -15 -10 11 -15 12 -18
3 -2 -7 4 -18 13 -25 16 -11 13 -16 -28 -52 -25 -22 -51 -53 -58 -67 -7 -15
-16 -27 -22 -27 -5 0 -36 16 -68 37 l-59 36 51 35 c42 28 58 33 85 29 36 -6
43 3 19 23 -26 21 -17 31 23 24 36 -7 37 -6 20 13 -32 35 -23 46 29 39 26 -3
51 -10 56 -15z m-983 -38 c0 -12 -7 -13 -27 -8 -30 7 -53 23 -53 35 0 4 18 3
40 -2 24 -6 40 -16 40 -25z m-632 -32 l16 -23 -34 7 c-43 9 -44 10 -36 30 8
22 35 15 54 -14z m71 10 c17 -11 5 -32 -14 -25 -18 7 -28 34 -12 34 7 0 18 -4
26 -9z m486 -20 c3 -5 1 -12 -5 -16 -5 -3 -10 1 -10 9 0 18 6 21 15 7z m63
-24 c2 -12 -3 -17 -17 -17 -15 0 -21 6 -21 21 0 25 33 22 38 -4z m-643 -19
l26 -23 -41 -49 c-22 -26 -40 -52 -40 -56 0 -12 -61 7 -78 24 -13 12 -8 22 34
70 27 31 54 56 61 56 7 0 24 -10 38 -22z m568 -22 c24 -18 21 -26 -8 -26 -18
0 -25 5 -25 20 0 23 8 25 33 6z m77 -36 c0 -11 -4 -20 -8 -20 -5 0 -17 9 -27
20 -18 20 -17 20 8 20 20 0 27 -5 27 -20z m-61 -24 c15 -8 34 -22 42 -32 12
-15 12 -16 -6 -11 -11 3 -33 9 -49 13 -26 6 -27 5 -17 -14 6 -12 15 -23 20
-26 11 -7 10 -15 -9 -73 -10 -33 -18 -43 -34 -43 -20 0 -86 34 -86 45 0 3 16
26 36 51 19 26 38 60 41 75 6 32 21 36 62 15z"/>
<path d="M12690 11281 c0 -20 8 -35 23 -46 21 -15 22 -14 25 5 4 23 -22 70
-38 70 -6 0 -10 -13 -10 -29z"/>
<path d="M12680 11086 c0 -46 9 -66 28 -66 12 0 13 3 4 12 -7 7 -12 27 -12 44
0 18 -4 36 -10 39 -6 4 -10 -8 -10 -29z"/>
<path d="M12745 11078 c-9 -22 -2 -63 10 -63 14 0 18 41 6 62 -9 17 -10 17
-16 1z"/>
<path d="M12445 10915 c-20 -44 -45 -101 -55 -126 -10 -26 -28 -62 -39 -80
-24 -40 -27 -60 -6 -38 20 19 146 301 141 314 -2 5 -20 -26 -41 -70z"/>
<path d="M12656 10969 c-63 -10 -81 -33 -50 -63 28 -29 71 -20 98 21 23 33 26
55 8 52 -4 -1 -29 -5 -56 -10z"/>
<path d="M12538 10923 c-28 -34 -50 -75 -68 -129 -11 -30 -17 -54 -15 -54 4 0
74 131 93 173 13 31 11 34 -10 10z"/>
<path d="M12692 10873 c-22 -18 -50 -28 -88 -32 -49 -5 -60 -10 -83 -40 -23
-31 -24 -34 -6 -27 11 5 43 14 72 21 49 12 143 75 143 96 0 12 0 12 -38 -18z"/>
<path d="M12687 10823 c-8 -7 41 -63 55 -63 14 0 9 38 -8 54 -16 17 -36 21
-47 9z"/>
<path d="M12390 10527 c-28 -14 -41 -57 -17 -57 20 0 49 35 45 54 -2 13 -7 14
-28 3z"/>
<path d="M15588 11933 c-1 -38 -1 -101 -1 -140 1 -40 -2 -73 -7 -73 -5 0 -9
-191 -9 -425 -1 -233 -4 -528 -7 -655 -2 -127 -1 -236 3 -243 4 -7 10 197 14
453 3 283 10 492 17 535 6 39 14 142 17 230 2 88 7 211 11 273 6 109 5 112
-15 112 -19 0 -21 -6 -23 -67z"/>
<path d="M9333 11775 c0 -22 2 -30 4 -17 2 12 2 30 0 40 -3 9 -5 -1 -4 -23z"/>
<path d="M9332 11570 c0 -19 2 -27 5 -17 2 9 2 25 0 35 -3 9 -5 1 -5 -18z"/>
<path d="M5037 11473 c-2 -4 -4 -161 -3 -348 1 -189 -2 -350 -7 -362 -5 -12
-6 -30 -2 -40 10 -24 12 -73 3 -73 -4 0 -3 -14 2 -31 5 -18 8 -35 5 -39 -10
-17 -3 -515 8 -526 8 -9 8 -37 8 769 1 357 -1 651 -4 653 -3 3 -7 2 -10 -3z"/>
<path d="M9330 11284 c0 -8 5 -12 10 -9 6 4 8 11 5 16 -9 14 -15 11 -15 -7z"/>
<path d="M12926 11048 c-4 -71 -17 -140 -40 -223 -19 -66 -33 -121 -31 -123 8
-8 55 88 71 143 19 70 31 282 17 296 -6 6 -12 -26 -17 -93z"/>
<path d="M9332 11075 c0 -16 2 -22 5 -12 2 9 2 23 0 30 -3 6 -5 -1 -5 -18z"/>
<path d="M15550 10125 c0 -38 3 -65 7 -62 7 8 5 119 -3 126 -2 2 -4 -26 -4
-64z"/>
<path d="M5033 9839 c1 -148 5 -193 12 -172 12 35 8 373 -5 373 -6 0 -8 -83
-7 -201z"/>
<path d="M15554 9996 c-3 -8 -4 -29 -1 -48 3 -30 4 -30 5 9 1 23 8 44 15 46 9
4 9 6 -1 6 -7 1 -15 -5 -18 -13z"/>
<path d="M15553 9850 c0 -36 2 -50 4 -32 2 17 2 47 0 65 -2 17 -4 3 -4 -33z"/>
<path d="M15553 9725 c0 -27 2 -38 4 -22 2 15 2 37 0 50 -2 12 -4 0 -4 -28z"/>
<path d="M15554 9525 c0 -49 1 -71 3 -48 2 23 2 64 0 90 -2 26 -3 8 -3 -42z"/>
<path d="M5042 9550 c0 -14 2 -19 5 -12 2 6 2 18 0 25 -3 6 -5 1 -5 -13z"/>
<path d="M5062 9465 c0 -16 2 -22 5 -12 2 9 2 23 0 30 -3 6 -5 -1 -5 -18z"/>
<path d="M15551 9380 c0 -26 4 -51 11 -58 9 -9 9 -12 0 -12 -7 0 -12 -7 -12
-15 0 -9 6 -12 15 -9 11 4 15 21 15 56 0 28 -4 47 -9 43 -5 -3 -12 5 -14 17
-2 13 -5 3 -6 -22z"/>
<path d="M2870 9303 c0 -5 5 -15 10 -23 8 -12 10 -11 10 8 0 12 -4 22 -10 22
-5 0 -10 -3 -10 -7z"/>
<path d="M5039 9288 c-4 -11 -5 -136 -1 -147 4 -11 8 -10 18 4 10 13 10 23 2
41 -9 19 -9 33 0 58 7 18 12 35 12 39 0 6 -29 10 -31 5z"/>
<path d="M15551 9210 c1 -55 1 -55 11 -18 7 25 6 43 -1 55 -8 14 -10 6 -10
-37z"/>
<path d="M2871 9138 c0 -39 3 -48 9 -33 12 28 12 85 0 85 -5 0 -10 -24 -9 -52z"/>
<path d="M15552 9027 c0 -103 1 -108 14 -77 19 45 19 187 0 187 -12 0 -14 -22
-14 -110z"/>
<path d="M5040 9104 c0 -6 7 -14 15 -18 10 -3 15 1 15 13 0 10 -7 18 -15 18
-8 0 -15 -6 -15 -13z"/>
<path d="M2873 9000 c1 -51 4 -75 8 -60 10 35 9 101 -1 125 -5 13 -8 -11 -7
-65z"/>
<path d="M5041 8964 c0 -11 3 -14 6 -6 3 7 2 16 -1 19 -3 4 -6 -2 -5 -13z"/>
<path d="M5047 8923 c-13 -12 -7 -40 8 -40 9 0 15 10 15 24 0 22 -10 30 -23
16z"/>
<path d="M15549 8820 c-3 -52 -7 -1503 -9 -3225 -3 -2721 -6 -4115 -10 -4205
-1 -14 -1 -171 -1 -350 0 -179 -3 -486 -6 -682 l-5 -358 21 0 c11 0 22 6 22
13 1 6 2 264 3 572 1 308 4 565 7 570 3 6 4 102 3 215 -2 113 -3 214 -2 225 0
11 2 762 4 1669 3 1311 1 1651 -9 1658 -8 5 -8 8 -1 8 16 0 18 164 2 189 -9
15 -9 28 1 58 11 35 10 372 -2 681 -2 45 0 82 4 82 4 0 7 22 6 50 -1 27 -4 50
-7 50 -3 0 -4 273 -2 607 5 826 5 774 -2 1176 -4 232 -2 357 4 357 6 0 10 75
10 200 0 123 -4 200 -10 200 -6 0 -11 67 -12 168 -3 148 -4 156 -9 72z"/>
<path d="M5034 8844 c-10 -38 12 -55 26 -20 5 15 8 32 4 37 -10 17 -24 9 -30
-17z"/>
<path d="M5052 8773 c-14 -25 -13 -72 2 -91 6 -9 6 -16 -1 -20 -6 -4 -12 -34
-13 -67 -1 -33 -2 -71 -3 -85 -2 -51 5 -184 10 -167 2 9 9 17 14 17 5 0 9 78
9 185 0 117 -4 185 -10 185 -14 0 -13 27 2 32 6 2 9 11 6 18 -3 11 -8 10 -16
-7z"/>
<path d="M2872 8740 c0 -14 2 -19 5 -12 2 6 2 18 0 25 -3 6 -5 1 -5 -13z"/>
<path d="M2722 8581 c-13 -23 -26 -31 -57 -35 -85 -11 -120 -19 -132 -28 -8
-7 -23 -6 -44 1 -72 25 -136 -3 -126 -54 5 -29 -12 -37 -62 -29 -49 8 -71 -13
-71 -66 0 -21 -4 -42 -10 -45 -5 -3 -10 3 -10 14 0 43 -63 69 -90 36 -22 -27
-71 -45 -90 -35 -31 16 -85 12 -104 -9 -9 -10 -30 -21 -45 -24 -21 -5 -32 -15
-40 -39 l-12 -33 -23 28 c-32 40 -88 48 -121 17 -17 -16 -23 -30 -19 -43 8
-27 -23 -56 -68 -64 -47 -7 -68 -26 -68 -60 0 -49 -94 -108 -115 -72 -22 35
-93 25 -115 -16 -16 -30 -31 -31 -86 -5 -32 16 -47 18 -67 11 -29 -11 -46 -37
-44 -66 2 -17 -4 -20 -34 -20 -40 0 -69 -19 -69 -44 0 -9 -15 -23 -33 -32 -17
-8 -36 -25 -42 -37 -5 -12 -15 -22 -20 -22 -6 0 -16 -5 -22 -11 -10 -10 -36
-14 -128 -19 -11 0 -25 7 -32 16 -7 10 -13 13 -13 7 0 -6 -17 -13 -39 -17 -46
-7 -65 -27 -57 -60 4 -15 0 -28 -9 -36 -8 -7 -15 -18 -15 -26 0 -7 -18 -23
-40 -35 -32 -18 -40 -28 -40 -50 0 -32 32 -59 68 -59 15 0 26 -7 29 -19 5 -18
42 -41 66 -41 36 0 37 -19 38 -977 0 -516 2 -985 4 -1043 2 -58 6 -622 9
-1254 4 -632 9 -1253 12 -1380 3 -127 5 -247 4 -266 0 -19 -27 -95 -60 -170
-82 -191 -181 -505 -195 -622 -7 -57 -7 -58 17 -58 32 0 71 43 152 167 37 56
71 105 76 108 6 4 10 -68 10 -194 0 -136 3 -201 11 -201 6 0 8 -9 3 -22 -4
-13 -6 -93 -5 -178 2 -165 9 -962 10 -1217 1 -149 2 -153 22 -153 21 0 21 1
14 205 -3 113 -3 231 1 261 l7 56 66 -6 c52 -5 76 -14 117 -41 62 -43 88 -44
166 -4 60 30 62 31 112 16 66 -18 96 -9 96 32 0 16 -11 42 -23 58 -100 120
-116 161 -81 212 40 56 166 63 283 16 54 -22 194 -45 276 -45 22 0 56 -5 76
-10 34 -10 37 -13 42 -57 3 -28 -1 -65 -9 -92 -8 -25 -18 -67 -23 -93 -7 -41
-5 -50 11 -65 19 -17 23 -16 90 19 47 24 76 34 87 29 28 -14 85 -33 114 -38
22 -4 36 3 71 35 42 38 95 62 142 62 63 0 48 88 -20 123 -38 20 -189 56 -233
57 -21 0 -23 5 -23 59 0 56 2 61 55 125 140 171 195 381 181 693 -4 87 -11
211 -17 276 -6 65 -8 133 -5 151 7 38 38 71 59 63 33 -12 125 -190 166 -319
18 -56 15 -155 -8 -227 -34 -103 -26 -151 25 -151 127 0 138 610 18 920 -79
202 -347 611 -536 816 -144 156 -178 227 -178 374 0 70 4 99 19 128 32 61 140
170 231 231 68 46 86 63 88 85 l4 28 -63 -7 c-34 -4 -142 -8 -238 -8 -167 0
-180 1 -253 27 -66 24 -88 28 -160 24 -96 -4 -165 -33 -248 -105 -83 -73 -91
-107 -88 -391 2 -272 -3 -295 -92 -473 -56 -113 -73 -140 -171 -276 -41 -57
-92 -128 -113 -160 -22 -31 -41 -52 -42 -47 -6 20 -14 757 -23 2074 -5 762
-12 1475 -16 1585 -3 110 -7 422 -9 694 l-3 493 63 -6 c36 -4 76 -11 90 -16
14 -6 46 -10 72 -10 26 0 65 -9 88 -19 95 -43 211 -52 352 -25 78 14 90 14
148 0 59 -15 70 -15 137 0 39 9 93 18 120 21 45 5 49 4 96 -40 33 -31 61 -48
85 -51 20 -3 53 -8 74 -12 65 -9 72 -14 117 -82 63 -97 87 -115 197 -151 121
-40 194 -87 282 -182 111 -120 130 -187 100 -371 -15 -97 -16 -125 -6 -218 18
-162 16 -189 -19 -257 -51 -100 -123 -187 -189 -229 -33 -22 -60 -42 -60 -46
0 -11 39 -10 84 3 28 8 55 7 101 -2 54 -11 67 -10 108 6 45 17 49 17 95 -1 26
-10 52 -17 57 -14 6 2 50 6 98 9 l89 6 -50 57 c-55 63 -72 113 -72 217 0 32
-12 103 -26 157 -31 117 -43 308 -25 394 14 65 48 143 99 223 57 88 102 103
381 127 62 5 120 15 128 22 9 7 30 44 48 83 24 54 48 85 102 136 86 81 120 94
222 85 52 -4 92 -2 126 8 28 7 95 25 150 40 66 18 124 41 170 69 l69 42 136
-1 c74 -1 214 -8 310 -15 l175 -14 -3 -27 c-1 -16 2 -28 8 -28 5 0 10 -7 10
-15 0 -8 -4 -15 -10 -15 -5 0 -10 -22 -10 -50 0 -27 5 -50 10 -50 6 0 10 -12
9 -27 l-1 -28 -8 25 -8 25 -1 -24 c-1 -13 4 -41 10 -61 9 -29 9 -46 0 -71 -8
-25 -8 -34 0 -40 9 -5 9 -15 0 -38 -8 -19 -11 -46 -6 -73 3 -24 10 -119 14
-213 6 -139 8 -90 9 270 3 469 3 474 53 498 33 17 39 79 10 118 -12 16 -21 34
-21 41 0 8 -6 23 -14 34 -14 20 -32 110 -46 234 -8 71 -10 66 -13 -27 -2 -48
1 -63 13 -67 10 -2 9 -4 -4 -5 -20 -1 -20 -1 0 -17 10 -8 12 -12 4 -8 -13 7
-13 5 -1 -9 11 -14 11 -17 0 -17 -20 0 -34 12 -48 38 -6 12 -21 22 -31 22 -15
0 -20 7 -20 25 0 40 -39 59 -109 51 -40 -5 -62 -3 -66 4 -5 8 -24 9 -56 5 -47
-7 -49 -6 -60 22 -6 15 -18 36 -26 45 -21 24 -78 23 -101 0 -10 -10 -26 -21
-34 -25 -20 -7 -48 22 -48 51 0 30 -38 62 -74 62 -35 1 -66 20 -66 42 0 30
-34 46 -104 51 -60 4 -71 8 -78 26 -4 12 -14 24 -22 27 -21 8 -39 60 -32 90
10 37 -16 71 -64 84 -22 6 -44 8 -49 6 -5 -3 -14 1 -21 9 -7 8 -18 15 -25 15
-6 0 -20 9 -30 20 -11 12 -31 20 -49 20 -21 0 -36 7 -44 21 -10 15 -22 20 -45
18 -18 -2 -37 -1 -42 3 -6 3 -22 8 -37 12 -17 4 -34 19 -44 39 -9 17 -22 35
-28 39 -18 12 -60 9 -82 -7 -12 -8 -41 -14 -65 -14 -24 1 -58 -2 -75 -6 -25
-5 -34 -3 -45 12 -36 51 -123 55 -135 8 -3 -14 -19 -31 -35 -39 -26 -13 -29
-13 -34 5 -11 33 -52 54 -80 41 -14 -6 -37 -10 -52 -7 -16 2 -45 7 -65 10 -29
4 -38 11 -38 25 0 22 -16 35 -23 18 -2 -8 -14 -1 -31 20 -38 44 -89 45 -114 3z
m-208 -655 c4 -28 19 -58 45 -88 20 -25 46 -67 56 -93 17 -45 17 -49 1 -77
-12 -19 -15 -38 -11 -59 4 -17 4 -56 0 -87 l-7 -57 -22 27 c-11 15 -28 36 -36
48 -10 14 -41 27 -98 40 -109 26 -122 34 -122 71 0 38 19 75 67 131 38 44 77
119 87 170 9 40 33 25 40 -26z m346 32 c0 -23 -18 -41 -34 -35 -21 8 -20 34 2
40 29 8 32 7 32 -5z m-405 -25 c-10 -41 -23 -50 -40 -27 -19 26 -19 29 8 42
34 17 40 14 32 -15z m215 -38 c0 -12 -11 -32 -25 -45 -23 -22 -26 -22 -44 -6
-18 16 -18 18 0 54 11 20 19 43 19 51 0 10 7 8 25 -9 14 -13 25 -33 25 -45z
m30 58 c0 -5 -4 -14 -8 -21 -7 -9 -13 -8 -27 8 -18 20 -18 20 8 20 15 0 27 -3
27 -7z m99 -34 c32 -55 23 -78 -50 -129 l-62 -43 -19 22 c-25 31 -23 39 17 90
22 27 35 55 35 72 0 25 4 29 28 29 23 0 33 -8 51 -41z m-394 -79 c-25 -27 -42
-25 -49 6 -7 28 0 61 17 83 9 10 15 5 31 -28 19 -39 19 -41 1 -61z m195 87 c0
-8 -9 -22 -19 -31 -19 -17 -20 -17 -30 3 -17 32 -13 41 19 41 18 0 30 -5 30
-13z m-270 -52 c0 -8 -6 -15 -14 -15 -20 0 -29 17 -14 23 22 9 28 7 28 -8z
m-25 -32 c41 -42 41 -63 -2 -119 -29 -38 -28 -38 -72 -23 -37 13 -39 29 -7 83
13 23 26 53 30 69 3 15 8 27 11 27 2 0 20 -17 40 -37z m-75 2 c0 -28 -21 -33
-40 -10 -10 12 -8 16 11 24 13 5 25 10 27 10 1 1 2 -10 2 -24z m692 -45 c19
-42 16 -76 -6 -70 -5 1 -12 -4 -16 -10 -5 -8 -18 -10 -33 -6 -30 7 -50 53 -35
82 16 30 63 72 67 60 2 -6 13 -31 23 -56z m-743 29 c19 -26 21 -35 12 -55 -14
-31 -23 -30 -44 5 -17 30 -22 63 -10 74 11 12 19 8 42 -24z m785 2 c14 -27 12
-41 -5 -41 -8 0 -39 52 -39 65 0 17 32 0 44 -24z m-943 -27 c13 -16 4 -64 -12
-64 -10 0 -39 59 -39 79 0 13 37 2 51 -15z m92 -5 c5 -19 3 -21 -26 -15 -17 4
-38 13 -47 21 -13 13 -9 15 27 15 33 0 42 -4 46 -21z m-163 -10 c0 -6 -4 -7
-10 -4 -5 3 -10 11 -10 16 0 6 5 7 10 4 6 -3 10 -11 10 -16z m-86 3 c7 -12
-24 -53 -35 -47 -5 4 -9 17 -9 31 0 17 5 24 19 24 11 0 22 -4 25 -8z m56 -12
c12 -8 9 -10 -13 -10 -16 0 -26 4 -22 10 8 12 16 12 35 0z m1100 -30 c21 -41
24 -78 12 -142 l-7 -37 -48 61 c-43 53 -47 62 -34 77 8 9 22 31 31 49 9 17 19
32 21 32 3 0 14 -18 25 -40z m-1210 -32 c0 -28 0 -28 -25 -12 -28 19 -30 26
-12 54 11 19 13 19 25 3 6 -9 12 -30 12 -45z m1240 47 c7 -9 10 -18 7 -22 -8
-7 -37 15 -37 28 0 14 16 11 30 -6z m-905 -50 c25 -29 53 -49 75 -55 28 -8 38
-17 45 -42 10 -31 16 -35 124 -70 63 -21 122 -45 131 -53 31 -28 71 -114 77
-167 6 -47 13 -60 59 -109 64 -66 82 -113 91 -231 5 -73 4 -88 -9 -88 -8 0
-69 31 -135 70 -91 52 -144 75 -208 91 -107 27 -153 59 -187 130 -14 30 -49
102 -78 162 -43 91 -59 113 -103 148 -29 23 -53 45 -55 49 -2 4 6 32 18 61 11
30 20 62 20 72 0 11 7 35 17 54 15 31 19 34 47 29 20 -4 46 -23 71 -51z m-179
20 c21 -29 17 -70 -13 -125 -24 -42 -32 -50 -58 -50 -51 0 -56 9 -53 96 3 71
5 80 27 90 33 17 81 11 97 -11z m856 -19 c15 -19 49 -44 75 -56 31 -14 58 -36
77 -63 17 -23 57 -75 90 -116 l61 -73 3 -105 4 -105 -33 -35 c-44 -45 -245
-223 -253 -223 -3 0 -6 6 -6 14 0 8 -17 62 -39 120 -29 79 -53 124 -96 180
l-57 75 3 143 c4 122 7 148 25 178 18 31 95 100 112 100 4 0 19 -15 34 -34z
m278 14 c0 -4 -7 -13 -15 -20 -13 -11 -15 -8 -15 13 0 19 4 25 15 21 8 -4 15
-10 15 -14z m-1307 -57 c25 -27 26 -32 16 -61 -21 -62 -64 -32 -72 50 -5 52
-4 57 11 49 9 -5 29 -22 45 -38z m1346 -2 c11 -20 27 -43 36 -51 9 -7 23 -26
31 -42 14 -28 14 -30 -17 -59 -17 -16 -41 -29 -53 -29 -64 0 -100 124 -56 194
25 41 33 39 59 -13z m61 -2 c-13 -23 -33 -21 -38 4 -3 12 4 17 23 17 23 0 25
-2 15 -21z m55 11 c7 -12 -15 -90 -26 -90 -5 0 -13 9 -18 19 -21 38 22 106 44
71z m580 -36 c15 -25 25 -47 23 -49 -1 -1 -23 -13 -47 -25 l-44 -22 7 24 c3
12 12 44 18 71 6 26 12 47 14 47 1 0 14 -21 29 -46z m-2105 9 c0 -25 -1 -26
-16 -11 -9 9 -13 21 -10 27 13 20 26 11 26 -16z m1600 2 c0 -13 -37 -45 -52
-45 -17 0 -7 40 14 54 23 16 38 13 38 -9z m430 -12 c-1 -28 -36 -88 -44 -74
-4 6 0 21 8 33 9 12 16 30 16 40 0 10 5 18 10 18 6 0 10 -8 10 -17z m-2092
-50 c-35 -35 -46 -23 -24 24 16 34 18 35 34 19 15 -15 15 -18 -10 -43z m1702
48 c0 -12 -20 -25 -27 -18 -7 7 6 27 18 27 5 0 9 -4 9 -9z m520 -6 c0 -8 -4
-15 -9 -15 -5 0 -14 7 -21 15 -10 13 -9 15 9 15 12 0 21 -6 21 -15z m-460 -34
c-1 -13 -3 -13 -15 3 -19 26 -19 42 0 26 8 -7 15 -20 15 -29z m510 14 c0 -17
-7 -28 -22 -34 -29 -11 -34 1 -12 33 21 33 34 33 34 1z m54 6 c3 -5 -3 -11
-13 -14 -12 -3 -22 1 -25 9 -6 16 29 20 38 5z m416 -14 c0 -7 -4 -18 -9 -26
-8 -12 -12 -12 -25 -2 -21 18 -20 39 2 44 21 4 32 -1 32 -16z m-2793 -12 c-4
-8 -11 -15 -17 -15 -14 0 -13 27 3 33 16 6 21 1 14 -18z m1793 -7 c22 -18 40
-41 40 -52 0 -30 -98 -203 -132 -231 -17 -14 -48 -35 -69 -45 l-38 -20 -10 33
c-6 17 -15 63 -22 100 l-11 68 31 37 c17 20 39 53 48 72 10 19 18 36 19 38 1
2 24 10 51 17 26 7 49 14 51 14 2 1 21 -14 42 -31z m130 11 c16 -28 8 -33 -37
-22 -23 5 -39 15 -41 26 -5 27 64 24 78 -4z m90 3 c20 -16 21 -19 6 -31 -13
-11 -20 -11 -41 3 -14 9 -25 23 -25 31 0 21 33 19 60 -3z m670 -7 c-18 -19
-26 -22 -32 -13 -16 26 -8 38 24 38 l31 0 -23 -25z m-2525 -43 c11 -6 48 -15
82 -22 34 -6 88 -25 120 -43 52 -29 62 -40 97 -110 22 -42 37 -79 34 -82 -14
-14 -208 46 -208 64 0 4 -12 22 -28 40 l-27 33 -95 -26 c-101 -28 -150 -32
-179 -16 -37 19 -34 42 11 85 24 23 60 63 82 89 l39 47 26 -24 c14 -14 35 -29
46 -35z m2295 38 c20 -20 28 -60 12 -60 -10 0 -52 56 -52 70 0 16 18 12 40
-10z m-33 -35 c33 -58 30 -82 -18 -126 -51 -47 -108 -75 -170 -83 l-47 -7 -31
68 c-26 54 -30 72 -22 90 13 29 59 52 118 60 27 3 64 14 83 24 47 25 61 21 87
-26z m209 20 c4 -14 5 -28 3 -30 -9 -8 -109 -22 -109 -14 0 4 12 21 26 38 33
39 71 42 80 6z m164 -86 c0 -72 -58 -113 -236 -168 -103 -31 -144 -36 -228
-25 l-46 7 74 48 c41 27 88 67 106 88 31 40 61 54 137 66 33 5 48 14 64 38 41
60 49 61 91 20 30 -30 38 -44 38 -74z m-2826 85 c22 -22 20 -57 -5 -72 -12 -7
-22 -12 -23 -10 0 2 -8 24 -17 51 l-17 47 24 0 c12 0 30 -7 38 -16z m2115 -11
c10 -21 9 -29 -2 -40 -11 -12 -16 -11 -31 6 -14 15 -15 24 -6 40 14 28 24 26
39 -6z m-2260 1 c2 -2 -2 -18 -9 -35 l-13 -32 -28 34 c-16 19 -29 38 -29 42 0
7 69 -1 79 -9z m72 -8 c12 -25 6 -100 -10 -125 -7 -10 -13 -11 -29 -2 -35 19
-44 45 -28 83 7 18 16 41 19 51 9 25 36 21 48 -7z m2933 15 c3 -5 -1 -14 -9
-21 -13 -10 -15 -9 -15 9 0 21 14 28 24 12z m41 -59 c-8 -33 -35 -73 -45 -67
-10 6 -2 71 12 98 14 27 41 2 33 -31z m-864 14 c11 -7 40 -39 64 -71 37 -48
45 -65 45 -101 0 -23 -5 -55 -10 -70 -12 -30 -150 -187 -186 -211 -13 -8 -98
-28 -191 -44 -92 -16 -190 -36 -218 -44 -27 -8 -51 -12 -53 -10 -9 8 53 107
93 149 24 24 76 66 116 92 66 44 75 54 105 119 18 38 46 88 63 109 17 21 33
54 37 73 l7 35 54 -6 c31 -4 64 -12 74 -20z m-2257 -27 c-7 -12 -74 -11 -74 1
0 5 12 16 28 24 24 13 28 13 39 -1 7 -9 10 -20 7 -24z m3181 -11 c20 -9 25
-18 25 -46 l0 -35 -41 6 c-22 3 -43 7 -45 10 -4 4 27 76 33 77 1 0 14 -5 28
-12z m-3130 -55 c19 -21 35 -40 35 -43 0 -9 -153 -40 -197 -40 l-42 0 15 28
c7 15 14 42 14 60 l0 32 70 0 c68 0 71 -1 105 -37z m-195 -3 c0 -23 -22 -26
-39 -6 -9 11 -9 15 1 19 26 11 38 7 38 -13z m-405 0 c3 -5 -1 -10 -10 -10 -9
0 -13 5 -10 10 3 6 8 10 10 10 2 0 7 -4 10 -10z m360 -20 c25 -27 27 -32 14
-45 -17 -17 -90 -10 -84 9 28 78 29 79 70 36z m3459 24 c9 -3 16 -10 16 -16 0
-14 -53 -5 -58 10 -4 13 16 16 42 6z m226 -14 c0 -5 -13 -16 -28 -24 -22 -11
-38 -12 -73 -5 -72 16 -74 32 -2 24 38 -4 69 -3 80 4 23 13 23 13 23 1z
m-3921 -16 c2 -2 -12 -4 -32 -4 -20 0 -39 5 -42 11 -5 7 5 8 32 3 21 -4 40 -8
42 -10z m112 4 c39 -11 48 -21 29 -33 -10 -6 -65 19 -75 35 -8 13 -1 13 46 -2z
m3867 -15 c-10 -2 -28 -2 -40 0 -13 2 -5 4 17 4 22 1 32 -1 23 -4z m57 -13 c4
-6 -6 -10 -22 -10 -22 0 -25 2 -13 10 19 12 27 12 35 0z m-4045 -5245 c25 -30
6 -116 -107 -495 -16 -55 -27 -121 -30 -186 -5 -98 -4 -106 32 -215 21 -63 67
-175 102 -249 65 -139 76 -191 53 -242 -12 -26 -164 -107 -177 -94 -4 4 -8 40
-9 79 0 40 -4 166 -8 282 -4 116 -8 390 -9 610 l-2 400 24 33 c22 32 95 92
111 92 4 0 13 -7 20 -15z"/>
<path d="M691 8202 c-1 -113 3 -168 12 -182 10 -17 9 -22 -3 -30 -13 -9 -13
-11 0 -20 10 -6 11 -10 3 -10 -19 0 -16 -47 3 -54 14 -5 15 6 11 92 -3 53 -9
110 -13 126 -5 22 -4 27 5 21 10 -6 11 5 6 46 -3 30 -6 70 -5 90 0 19 -4 46
-9 60 -7 17 -10 -23 -10 -139z"/>
<path d="M7191 8133 c1 -10 -2 -157 -5 -328 -3 -170 -6 -440 -8 -598 l-2 -289
-47 -23 c-62 -32 -104 -76 -121 -127 -8 -23 -20 -44 -26 -46 -22 -7 -50 80
-67 203 -30 220 -88 291 -276 340 -162 42 -347 -16 -405 -127 -8 -15 -49 -54
-92 -86 -99 -76 -126 -106 -154 -167 -16 -37 -23 -69 -23 -121 0 -60 4 -76 27
-112 16 -23 40 -48 55 -56 17 -8 91 -18 188 -25 260 -19 282 -28 406 -163 106
-114 155 -144 357 -220 86 -32 163 -65 171 -73 14 -14 19 -134 6 -154 -3 -6
-36 -30 -74 -54 -92 -60 -120 -120 -86 -186 14 -29 94 -71 133 -71 11 0 24 -6
30 -13 8 -9 11 -317 11 -1038 -1 -563 -1 -1150 0 -1304 1 -154 1 -286 1 -292
0 -22 -51 -14 -155 22 -171 60 -254 46 -299 -50 -15 -31 -21 -35 -54 -35 -45
0 -62 -14 -62 -52 0 -22 6 -31 26 -39 15 -5 35 -7 45 -4 11 4 19 3 19 -2 0
-34 -107 -307 -137 -352 -44 -63 -119 -117 -194 -136 -109 -29 -132 -21 -216
83 -33 43 -139 165 -235 273 -95 107 -188 216 -207 242 -44 60 -72 71 -176 65
-74 -4 -94 -9 -167 -46 -46 -23 -132 -80 -193 -128 -125 -98 -146 -110 -270
-153 -49 -18 -109 -43 -133 -57 -63 -37 -170 -141 -212 -206 -48 -73 -66 -141
-84 -318 -9 -80 -21 -163 -27 -185 -30 -107 -146 -282 -255 -386 -60 -57 -104
-135 -104 -183 0 -16 11 -48 24 -70 23 -40 24 -49 29 -301 5 -284 17 -363 59
-414 14 -16 30 -50 37 -74 6 -25 16 -49 21 -52 6 -4 70 -24 142 -46 124 -37
133 -39 145 -23 7 10 13 26 13 37 0 34 -41 94 -76 110 -151 73 -224 291 -195
587 10 101 14 117 34 130 12 8 37 30 55 48 35 37 42 81 21 141 -10 29 -8 37
24 84 23 35 60 70 110 105 41 29 78 52 82 52 4 0 5 -16 2 -36 -4 -25 -22 -53
-57 -89 -38 -41 -50 -61 -50 -85 0 -42 30 -97 80 -145 l42 -40 -7 36 c-6 31
-2 41 32 85 58 73 59 79 13 122 l-39 37 25 60 c41 98 91 126 129 72 30 -42 11
-280 -31 -410 -9 -27 -29 -63 -44 -80 -77 -89 -78 -134 -3 -222 26 -30 46 -77
87 -205 29 -91 66 -218 81 -284 25 -109 31 -122 66 -156 22 -21 42 -52 45 -68
10 -49 69 -67 224 -67 123 0 125 0 128 23 5 33 -22 59 -100 98 -107 54 -196
147 -182 191 4 13 3 14 -4 5 -6 -9 -18 11 -40 70 -44 118 -91 282 -98 342 -5
46 -3 55 25 90 35 43 38 70 16 123 l-15 37 56 100 c103 182 145 260 190 354
24 50 47 92 51 92 4 0 52 -26 107 -57 57 -33 129 -65 166 -74 l64 -16 13 -49
c15 -59 16 -172 2 -234 -6 -27 -23 -58 -42 -78 -35 -36 -37 -51 -22 -204 8
-86 -4 -139 -77 -326 l-40 -102 20 -43 c12 -23 28 -68 37 -99 9 -32 18 -58 19
-58 2 0 27 -5 57 -10 62 -12 149 -3 156 16 12 32 -9 64 -61 98 -30 19 -57 43
-60 54 -4 11 1 55 9 98 34 163 96 312 162 384 43 48 54 110 30 160 -16 30 -14
37 34 193 28 89 52 168 55 175 7 23 33 12 65 -27 33 -39 152 -303 150 -331 -1
-8 -4 -36 -7 -62 -6 -46 -5 -47 49 -100 30 -29 68 -80 84 -113 37 -74 106
-275 129 -375 23 -105 47 -148 87 -158 27 -7 33 -13 35 -41 5 -49 50 -64 175
-59 96 4 116 11 117 42 0 5 -71 82 -159 170 -201 204 -235 266 -261 475 -8 71
-7 87 5 101 43 48 13 135 -54 155 l-34 10 6 185 c3 102 10 208 17 237 24 107
76 151 268 227 68 27 145 64 170 82 26 18 64 40 84 49 68 30 224 236 268 353
12 31 27 83 34 116 11 54 15 59 49 71 20 7 37 10 38 6 3 -25 -3 -1737 -6
-1776 -12 -144 -17 -165 -41 -187 -30 -29 -32 -59 -3 -55 48 5 63 -146 26
-252 -15 -41 -14 -45 4 -64 11 -13 17 -28 13 -37 -14 -32 -16 -62 -9 -125 6
-61 8 -65 31 -65 l25 0 -3 1303 -3 1303 32 41 c21 26 44 43 64 47 39 8 98 -8
132 -34 14 -11 32 -20 41 -20 20 0 30 40 22 89 -5 30 -2 42 14 56 37 33 19 86
-50 149 -65 58 -98 69 -176 55 -38 -7 -69 -8 -75 -2 -5 5 -11 580 -15 1330
l-7 1321 109 4 c86 3 117 8 150 25 66 35 77 61 69 161 l-7 85 73 -6 c41 -3
127 -11 191 -18 90 -9 146 -9 239 0 66 6 125 9 130 6 15 -10 11 -29 -22 -111
-35 -88 -32 -112 22 -139 26 -14 56 -16 168 -13 116 3 144 7 189 27 66 30 94
68 100 137 3 41 -1 64 -22 109 -32 70 -33 112 -3 156 18 27 44 42 149 85 195
80 248 121 268 210 11 50 6 56 -35 38 -19 -8 -63 -14 -98 -14 l-64 0 -6 93
c-3 50 -13 114 -22 140 -38 108 -205 317 -353 443 -88 75 -241 156 -329 174
-37 8 -105 11 -188 7 -193 -7 -284 -41 -524 -191 -65 -41 -132 -81 -149 -90
l-32 -17 0 600 c0 363 -4 602 -9 606 -6 3 -10 -3 -10 -12z"/>
<path d="M5035 8088 c-4 -10 -4 -26 0 -35 8 -17 8 -17 12 0 3 9 3 25 0 35 -4
16 -4 16 -12 0z"/>
<path d="M5043 7980 c0 -30 2 -43 4 -27 2 15 2 39 0 55 -2 15 -4 2 -4 -28z"/>
<path d="M712 7850 c0 -19 2 -27 5 -17 2 9 2 25 0 35 -3 9 -5 1 -5 -18z"/>
<path d="M13496 7869 c-10 -24 -2 -174 9 -174 13 0 18 134 6 166 -7 19 -10 21
-15 8z"/>
<path d="M13504 7647 c4 -22 3 -44 -3 -51 -6 -7 -10 -39 -10 -72 0 -32 0 -81
1 -109 0 -71 0 -367 -1 -515 0 -69 0 -136 1 -150 0 -14 0 -41 -1 -60 -3 -116
-3 -334 0 -390 1 -19 3 -114 3 -211 1 -110 5 -176 11 -176 15 0 17 229 2 239
-8 5 -8 8 -1 8 13 0 14 1504 0 1517 -5 4 -6 -8 -2 -30z"/>
<path d="M10187 6684 c-4 -4 -7 -35 -7 -69 0 -51 -4 -65 -23 -83 -30 -28 -52
-28 -82 2 -16 16 -26 41 -31 76 -6 47 -25 73 -40 57 -4 -3 -1 -43 5 -88 6 -45
10 -84 8 -85 -1 -1 -34 17 -72 42 -205 130 -252 67 -99 -130 30 -37 54 -75 54
-83 0 -39 -58 -109 -265 -323 -83 -85 -183 -193 -222 -240 -39 -47 -97 -110
-129 -140 -58 -54 -87 -75 -229 -158 -38 -22 -93 -60 -122 -84 -29 -24 -83
-69 -121 -100 -86 -72 -104 -79 -310 -129 -219 -52 -250 -68 -361 -185 -119
-126 -145 -179 -166 -339 -22 -163 -29 -184 -82 -262 -61 -89 -77 -133 -63
-181 15 -54 72 -153 100 -171 22 -15 24 -15 17 1 -4 11 0 21 9 26 14 8 14 10
0 21 -20 17 -20 66 -2 118 8 22 19 82 25 134 22 182 23 186 31 164 15 -39 33
-245 27 -313 -3 -51 -14 -87 -46 -153 -40 -81 -43 -94 -56 -235 -8 -82 -19
-174 -25 -204 -26 -139 -64 -279 -87 -320 -14 -25 -29 -72 -34 -105 -6 -33
-17 -67 -25 -77 -44 -48 15 -96 131 -105 88 -7 89 -6 51 90 -37 94 -38 102
-26 168 15 80 144 529 163 565 l15 29 12 -45 c6 -25 21 -74 33 -110 18 -57 21
-98 27 -330 4 -176 10 -275 18 -294 7 -16 10 -36 7 -46 -12 -38 4 -50 70 -50
86 0 125 9 125 29 0 9 -27 58 -60 109 -77 123 -84 162 -78 432 4 174 9 224 32
328 40 182 60 239 117 332 29 47 74 126 99 175 34 64 54 91 68 93 12 2 68 -20
126 -49 95 -47 114 -53 186 -57 63 -4 100 0 170 18 137 36 140 30 117 -283
-10 -132 -13 -227 -7 -252 4 -22 13 -64 19 -94 15 -71 14 -341 -1 -452 -11
-81 -10 -93 10 -156 11 -37 25 -86 29 -108 8 -39 9 -40 48 -39 70 1 136 15
141 29 3 7 -10 54 -30 103 -29 71 -40 120 -56 248 -27 206 -28 296 -4 354 17
42 19 43 25 20 4 -14 7 -60 8 -102 1 -71 12 -106 24 -76 6 15 8 -53 7 -218 -1
-120 -1 -121 35 -189 19 -37 35 -79 35 -92 0 -35 18 -63 39 -63 34 0 152 41
157 55 3 7 -6 30 -19 52 -53 84 -76 145 -116 309 -40 166 -41 175 -45 385 -2
118 -7 255 -11 304 -5 70 -2 115 14 204 12 63 21 129 21 146 0 17 12 54 26 81
62 116 74 144 80 196 4 35 1 82 -10 132 -24 118 -21 170 19 293 20 59 56 180
81 268 110 392 190 594 247 625 27 14 29 14 52 -13 14 -15 36 -66 51 -114 25
-81 58 -133 85 -133 6 0 26 15 45 34 l34 34 -1 99 c-2 91 0 102 28 158 17 33
40 90 52 128 28 92 34 102 112 184 72 76 97 129 85 178 -6 25 -10 27 -41 22
-19 -3 -65 -24 -103 -46 -59 -35 -90 -48 -93 -38 0 1 -6 38 -12 81 -11 73 -23
97 -40 80z"/>
<path d="M5059 6443 c-3 -85 3 -708 7 -712 2 -2 4 163 4 367 0 205 -2 372 -5
372 -3 0 -5 -12 -6 -27z"/>
<path d="M5515 6291 c-199 -70 -265 -136 -309 -308 -42 -160 -7 -326 125 -594
43 -86 85 -181 94 -210 24 -77 39 -447 21 -500 -25 -73 -67 -129 -155 -208
-88 -79 -147 -116 -206 -132 -16 -4 -56 -17 -87 -29 -32 -11 -86 -21 -120 -22
-94 -4 -123 15 -182 115 -105 176 -163 230 -347 322 -106 54 -220 85 -309 85
-47 0 -147 51 -226 115 -30 25 -61 45 -68 45 -7 0 -35 7 -63 15 -44 13 -52 20
-58 44 -3 16 -1 48 5 72 15 55 6 85 -31 104 -16 9 -45 40 -64 70 -59 91 -122
125 -235 125 -83 0 -166 -52 -224 -140 -24 -36 -53 -73 -65 -82 -22 -19 -24
-28 -21 -92 1 -29 11 -51 35 -79 18 -21 36 -55 40 -75 10 -57 43 -125 73 -150
l27 -22 -35 -30 -35 -30 -5 -283 c-7 -307 -3 -287 -78 -447 -21 -47 -45 -103
-52 -125 -18 -56 -49 -117 -148 -292 l-86 -152 -99 -7 c-94 -6 -101 -8 -145
-44 -26 -20 -59 -52 -74 -72 -24 -31 -26 -40 -17 -71 5 -20 14 -39 19 -42 5
-3 30 17 56 45 l47 50 83 0 c85 0 112 -12 81 -35 -28 -20 -20 -35 16 -29 62
11 105 35 118 68 25 61 144 232 216 310 48 52 105 133 170 240 179 297 253
406 281 413 16 4 48 -1 82 -13 l55 -19 9 -65 9 -65 -112 -220 c-69 -136 -134
-249 -170 -295 -55 -72 -61 -76 -132 -100 -148 -51 -189 -83 -189 -146 0 -25
6 -47 15 -54 8 -7 15 -24 15 -39 0 -34 17 -51 51 -51 23 0 29 5 34 33 4 17 13
42 21 54 20 32 86 63 147 70 44 5 58 12 92 47 23 23 63 75 89 115 27 40 87
113 134 162 76 80 88 89 121 89 33 0 46 -10 148 -112 100 -101 163 -190 163
-228 0 -6 -36 -10 -93 -10 l-94 0 -66 -69 c-37 -38 -67 -73 -67 -78 1 -19 18
-31 56 -37 35 -6 44 -4 55 12 17 23 71 52 98 52 12 0 23 -11 30 -31 l11 -31
142 7 c128 6 148 10 193 34 40 21 50 31 50 51 -1 22 -109 212 -217 378 -26 41
-42 79 -45 107 l-5 43 53 7 c30 3 96 10 147 13 l92 8 60 -81 c98 -133 90 -129
321 -133 l197 -3 51 -54 c28 -29 51 -59 51 -67 -1 -7 -24 -31 -52 -53 -106
-83 -108 -86 -108 -159 0 -57 3 -65 21 -71 11 -4 25 -17 31 -30 11 -25 56 -39
75 -24 7 7 13 5 16 -3 3 -7 6 -4 6 7 1 11 8 30 16 42 8 11 17 39 21 61 5 33
14 46 51 72 24 18 80 67 124 109 73 71 79 81 79 117 0 60 -14 72 -118 94 l-94
21 -104 93 c-110 100 -131 111 -236 121 -55 5 -71 11 -86 30 -19 24 -48 112
-40 120 2 3 54 11 114 19 60 9 142 22 182 29 66 13 73 13 82 -2 8 -14 9 -13
10 4 0 16 27 35 114 83 207 113 279 182 363 347 76 150 96 261 74 427 -28 212
-74 350 -180 538 -110 195 -121 398 -29 543 34 53 50 64 123 83 65 18 110 17
213 -2 91 -17 201 -60 297 -115 33 -19 72 -40 86 -47 14 -8 48 -31 75 -53 27
-21 59 -44 72 -51 51 -26 73 26 53 123 -30 138 -171 236 -446 309 -151 41
-257 41 -370 1z"/>
<path d="M5063 5665 c0 -22 2 -30 4 -17 2 12 2 30 0 40 -3 9 -5 -1 -4 -23z"/>
<path d="M2903 5605 c0 -22 2 -30 4 -17 2 12 2 30 0 40 -3 9 -5 -1 -4 -23z"/>
<path d="M2903 5515 c0 -27 2 -38 4 -22 2 15 2 37 0 50 -2 12 -4 0 -4 -28z"/>
<path d="M2903 5350 c0 -41 2 -58 4 -37 2 20 2 54 0 75 -2 20 -4 3 -4 -38z"/>
<path d="M5063 5295 c0 -22 2 -30 4 -17 2 12 2 30 0 40 -3 9 -5 -1 -4 -23z"/>
<path d="M2902 5215 c0 -16 2 -22 5 -12 2 9 2 23 0 30 -3 6 -5 -1 -5 -18z"/>
<path d="M2903 5115 c0 -27 2 -38 4 -22 2 15 2 37 0 50 -2 12 -4 0 -4 -28z"/>
<path d="M5062 5015 c0 -16 2 -22 5 -12 2 9 2 23 0 30 -3 6 -5 -1 -5 -18z"/>
<path d="M5062 4785 c0 -16 2 -22 5 -12 2 9 2 23 0 30 -3 6 -5 -1 -5 -18z"/>
<path d="M2901 4534 c0 -11 3 -14 6 -6 3 7 2 16 -1 19 -3 4 -6 -2 -5 -13z"/>
<path d="M2902 4380 c0 -14 2 -19 5 -12 2 6 2 18 0 25 -3 6 -5 1 -5 -13z"/>
<path d="M2903 4245 c0 -22 2 -30 4 -17 2 12 2 30 0 40 -3 9 -5 -1 -4 -23z"/>
<path d="M2902 4180 c0 -14 2 -19 5 -12 2 6 2 18 0 25 -3 6 -5 1 -5 -13z"/>
<path d="M13511 4014 c0 -11 3 -14 6 -6 3 7 2 16 -1 19 -3 4 -6 -2 -5 -13z"/>
<path d="M5063 3865 c0 -22 2 -30 4 -17 2 12 2 30 0 40 -3 9 -5 -1 -4 -23z"/>
<path d="M13512 3750 c0 -19 2 -27 5 -17 2 9 2 25 0 35 -3 9 -5 1 -5 -18z"/>
<path d="M9354 3429 c-3 -6 -1 -16 5 -22 8 -8 11 -5 11 11 0 24 -5 28 -16 11z"/>
<path d="M9361 3374 c0 -11 3 -14 6 -6 3 7 2 16 -1 19 -3 4 -6 -2 -5 -13z"/>
<path d="M13508 3348 c-2 -7 -1 -53 2 -103 l7 -90 1 103 c2 96 -1 119 -10 90z"/>
<path d="M9357 3263 c-7 -12 -3 -71 6 -79 4 -4 7 14 7 39 0 45 -4 56 -13 40z"/>
<path d="M10561 3145 c-21 -20 -74 -79 -117 -133 -154 -192 -205 -249 -231
-261 -14 -6 -90 -27 -169 -46 -79 -19 -161 -43 -181 -54 -44 -22 -99 -79 -169
-171 -72 -95 -163 -183 -219 -210 -66 -32 -114 -30 -269 14 -214 60 -348 49
-481 -39 -164 -109 -402 -448 -474 -675 -12 -36 -30 -114 -40 -173 -29 -161
-41 -178 -186 -270 -41 -27 -56 -45 -87 -107 -50 -100 -108 -323 -108 -415 0
-75 15 -111 68 -167 l26 -28 262 0 263 0 20 26 c12 15 21 33 21 41 0 7 -27 43
-60 78 -33 35 -60 71 -60 78 0 29 49 84 165 186 66 58 155 141 198 184 75 77
78 79 97 62 26 -23 111 -191 144 -283 37 -104 65 -218 72 -300 l7 -72 252 0
252 0 18 39 c23 52 16 75 -44 144 -57 66 -67 95 -77 227 -5 75 -3 98 7 106 8
6 49 16 91 23 42 6 107 23 143 37 39 16 70 23 75 18 11 -11 40 -174 40 -226 0
-46 -17 -83 -55 -118 -35 -32 -65 -92 -65 -128 0 -15 13 -49 30 -75 l30 -47
179 0 c99 0 187 3 196 6 53 21 153 368 181 628 19 182 23 206 33 206 15 0 22
-32 41 -190 l19 -155 60 -118 c34 -64 61 -130 61 -145 0 -19 -15 -46 -44 -79
-52 -62 -63 -96 -41 -129 l15 -24 266 0 265 0 26 27 c14 16 40 57 57 93 30 63
31 70 30 190 -1 69 -7 168 -13 220 -40 320 -50 360 -127 532 l-44 98 0 175 0
175 41 0 c82 0 128 20 197 84 99 93 142 151 142 194 0 42 -31 135 -66 195 -13
23 -24 51 -24 61 0 11 -17 35 -38 55 -53 50 -56 63 -22 113 49 72 44 93 -53
213 -48 60 -77 131 -77 190 0 44 -23 71 -88 104 -73 36 -142 51 -242 51 -77 0
-81 -1 -119 -35z"/>
<path d="M5064 3055 c0 -55 1 -76 3 -47 2 29 2 74 0 100 -2 26 -3 2 -3 -53z"/>
<path d="M13500 3056 c0 -53 3 -96 8 -96 10 0 12 179 1 186 -5 3 -9 -36 -9
-90z"/>
<path d="M13501 2808 c1 -106 4 -131 10 -98 11 65 11 228 -1 235 -7 4 -10 -44
-9 -137z"/>
<path d="M5063 2840 c0 -47 2 -66 4 -42 2 23 2 61 0 85 -2 23 -4 4 -4 -43z"/>
<path d="M9356 2787 c-5 -15 -6 -31 -2 -34 11 -11 18 5 14 34 l-4 28 -8 -28z"/>
<path d="M13502 2476 c2 -97 0 -178 -5 -180 -4 -3 -2 -3 5 -2 17 3 24 341 8
351 -8 5 -10 -46 -8 -169z"/>
<path d="M14565 2317 c-17 -13 -18 -19 -7 -53 6 -21 8 -42 3 -47 -11 -11 -157
-36 -255 -43 -67 -5 -107 -1 -231 24 -210 42 -199 41 -415 52 -107 5 -267 19
-355 30 -322 41 -473 37 -749 -16 -478 -93 -756 -247 -873 -484 -66 -133 -85
-223 -90 -435 -5 -184 2 -235 31 -235 34 0 84 111 101 223 6 39 6 39 27 20 11
-10 43 -63 69 -117 61 -124 62 -154 13 -256 -48 -99 -49 -167 -5 -335 57 -217
71 -230 236 -230 96 0 117 3 132 18 17 17 16 22 -32 113 -58 113 -63 165 -26
251 30 67 105 139 156 149 70 13 85 -20 53 -121 -15 -47 -14 -56 3 -125 11
-41 35 -108 54 -148 29 -62 40 -75 72 -89 51 -21 189 -14 228 11 33 22 30 41
-23 129 -49 80 -62 112 -62 145 0 36 39 91 86 124 36 24 47 26 144 27 113 0
256 19 391 51 46 11 107 21 134 22 48 3 49 2 55 -29 4 -18 4 -105 0 -195 -9
-186 -2 -244 32 -271 12 -11 22 -22 21 -26 -2 -7 190 -3 225 4 27 7 28 16 0
83 -20 47 -21 58 -11 107 12 56 99 248 146 323 29 44 61 56 71 25 15 -51 25
-161 23 -253 -2 -122 21 -209 74 -272 39 -48 75 -57 182 -48 153 14 178 46 90
114 -104 82 -110 184 -27 438 18 56 35 87 62 112 20 20 41 36 47 36 6 0 42 21
80 46 143 94 153 94 270 -2 121 -99 117 -98 280 -91 179 7 237 19 269 58 32
37 62 119 71 190 11 89 -14 134 -113 203 -105 74 -112 91 -87 205 10 47 20
109 23 137 l4 50 -85 85 c-121 123 -120 119 -37 158 83 39 92 56 50 93 -16 16
-36 28 -42 28 -7 0 -37 -26 -68 -59 l-55 -58 -55 19 c-30 11 -82 22 -115 26
-63 7 -59 3 -99 92 -14 30 -61 38 -91 17z"/>
<path d="M5062 1170 c0 -19 2 -27 5 -17 2 9 2 25 0 35 -3 9 -5 1 -5 -18z"/>
<path d="M5064 880 c0 -69 1 -97 3 -62 2 34 2 90 0 125 -2 34 -3 6 -3 -63z"/>
<path d="M5062 705 c0 -16 2 -22 5 -12 2 9 2 23 0 30 -3 6 -5 -1 -5 -18z"/>
<path d="M7090 680 c-13 -8 -12 -10 3 -10 9 0 17 5 17 10 0 12 -1 12 -20 0z"/>
<path d="M5062 580 c0 -14 2 -19 5 -12 2 6 2 18 0 25 -3 6 -5 1 -5 -13z"/>
<path d="M13480 160 c0 -11 5 -20 10 -20 6 0 10 9 10 20 0 11 -4 20 -10 20 -5
0 -10 -9 -10 -20z"/>
<path d="M5062 140 c0 -14 2 -19 5 -12 2 6 2 18 0 25 -3 6 -5 1 -5 -13z"/>
<path d="M5062 35 c0 -17 2 -22 5 -12 2 9 2 23 0 30 -3 6 -5 -1 -5 -18z"/>
</g>
</svg>
